<?xml version="1.0" encoding="utf-8"?>
<!-- Generator: Adobe Illustrator 27.3.1, SVG Export Plug-In . SVG Version: 6.00 Build 0)  -->
<svg version="1.1" id="Layer_1" xmlns="http://www.w3.org/2000/svg" xmlns:xlink="http://www.w3.org/1999/xlink" x="0px" y="0px"
	 viewBox="0 0 639 107" style="enable-background:new 0 0 639 107;" xml:space="preserve">
<style type="text/css">
	.st0{fill-rule:evenodd;clip-rule:evenodd;fill:#DAA900;}
	.st1{fill:#DAA900;}
</style>
<g>
	<g>
		<path d="M145,84v14.3h-4.9V66.3h7.3c2.1,0,3.8,0.1,5,0.4c1.2,0.3,2.2,0.7,3,1.4c1,0.8,1.8,1.8,2.3,3c0.5,1.2,0.8,2.6,0.8,4
			c0,2.6-0.6,4.6-1.9,6c-1.2,1.5-3.1,2.3-5.5,2.6l11,14.6h-5.9l-10.7-14.3L145,84L145,84z M145.3,80h0.9c2.8,0,4.6-0.3,5.5-1
			c0.9-0.6,1.4-1.8,1.4-3.4c0-1.8-0.5-3-1.5-3.7c-1-0.7-2.8-1.1-5.4-1.1h-0.9L145.3,80L145.3,80z"/>
		<path d="M198,82.4c0,2.3-0.4,4.4-1.3,6.5c-0.9,2-2.1,3.9-3.7,5.4c-1.6,1.6-3.5,2.8-5.6,3.6c-2.1,0.9-4.2,1.3-6.5,1.3
			c-2.3,0-4.5-0.4-6.6-1.3c-2.1-0.9-3.9-2.1-5.5-3.6c-1.6-1.6-2.9-3.4-3.7-5.4c-0.8-2-1.3-4.2-1.3-6.5c0-2.3,0.4-4.5,1.3-6.5
			c0.9-2,2.1-3.9,3.7-5.4c1.6-1.6,3.5-2.8,5.6-3.6c2.1-0.8,4.3-1.2,6.6-1.2c2.3,0,4.5,0.4,6.6,1.2c2.1,0.8,3.9,2,5.5,3.6
			c1.6,1.6,2.9,3.5,3.7,5.5C197.6,78,198,80.2,198,82.4z M192.6,82.4c0-1.6-0.3-3.2-0.9-4.6c-0.6-1.5-1.4-2.8-2.5-3.9
			c-1.1-1.1-2.3-2-3.8-2.6c-1.4-0.6-2.9-0.9-4.5-0.9c-1.6,0-3.1,0.3-4.5,0.9c-1.4,0.6-2.7,1.5-3.8,2.6c-1.1,1.1-2,2.4-2.5,3.9
			c-0.6,1.5-0.9,3-0.9,4.6c0,1.6,0.3,3.2,0.9,4.6c0.6,1.5,1.4,2.7,2.5,3.9c1.1,1.1,2.4,2,3.8,2.6c1.4,0.6,2.9,0.9,4.5,0.9
			c1.6,0,3-0.3,4.5-0.9c1.4-0.6,2.7-1.5,3.8-2.6c1.1-1.1,2-2.4,2.5-3.9C192.3,85.6,192.6,84,192.6,82.4z"/>
		<path d="M209.3,98.4V83.7l-10.8-17.4h5.5l6.7,10.9c0.2,0.3,0.4,0.6,0.6,1.1c0.2,0.5,0.5,0.9,0.7,1.5c0.2-0.5,0.4-1,0.6-1.5
			c0.2-0.5,0.5-0.9,0.7-1.2l6.9-10.8h5.2l-11,17.4v14.7L209.3,98.4L209.3,98.4z"/>
		<path d="M247.7,98.4l-3.6-8.2h-12.7l-3.7,8.2h-5.5l15.5-33.3l15.5,33.3H247.7z M233.3,85.8h8.9l-3.3-7.3c-0.2-0.5-0.4-1-0.6-1.6
			c-0.2-0.6-0.4-1.3-0.6-2c-0.2,0.7-0.4,1.4-0.6,2c-0.2,0.6-0.4,1.2-0.6,1.7L233.3,85.8z"/>
		<path d="M295.9,82.6c-0.1-0.2-0.1-0.9-0.3-2.1c-0.1-0.9-0.2-1.7-0.3-2.3c-0.1,0.7-0.3,1.5-0.6,2.2c-0.2,0.7-0.5,1.5-0.9,2.2
			l-8.4,17.1l-8.4-17.4c-0.4-0.7-0.6-1.4-0.9-2.1c-0.2-0.7-0.5-1.3-0.7-2c0,0.7-0.1,1.4-0.2,2.1c-0.1,0.7-0.2,1.5-0.4,2.3l-3.4,15.8
			h-4.8l7.6-33.4l9.5,20.2c0.1,0.3,0.4,0.8,0.7,1.6c0.3,0.8,0.7,1.7,1.1,2.8c0.3-0.9,0.8-2.1,1.4-3.5c0.2-0.4,0.3-0.7,0.4-0.9
			l9.2-20.2l7.8,33.4h-4.8L295.9,82.6z"/>
		<path d="M308.5,98.4V66.3h17.9v4.4h-12.7v8h12.7v4.6h-12.7v10.4h12.7v4.7L308.5,98.4L308.5,98.4z"/>
		<path d="M332.3,98.4V66.3h7c4.6,0,7.8,0.2,9.6,0.7c1.9,0.5,3.5,1.2,4.9,2.3c1.9,1.4,3.2,3.2,4.2,5.4c1,2.2,1.4,4.8,1.4,7.6
			c0,2.8-0.5,5.4-1.4,7.6c-1,2.2-2.4,4-4.2,5.4c-1.4,1.1-3,1.9-4.8,2.3c-1.8,0.5-4.6,0.7-8.4,0.7h-1.4L332.3,98.4L332.3,98.4z
			 M337.5,93.7h4.4c2.4,0,4.2-0.1,5.4-0.5c1.2-0.3,2.3-0.9,3.1-1.6c1.2-1,2.1-2.3,2.7-3.9c0.6-1.5,0.9-3.3,0.9-5.4
			c0-2-0.3-3.8-0.9-5.4c-0.6-1.5-1.5-2.8-2.7-3.9c-0.9-0.8-2-1.3-3.2-1.6c-1.3-0.3-3.2-0.5-5.9-0.5h-1.9h-1.9L337.5,93.7L337.5,93.7
			z"/>
		<path d="M365.6,98.4V66.3h5.2v32.1H365.6z"/>
		<path d="M404,74.1c-1.5-1.3-3-2.2-4.7-2.8c-1.6-0.6-3.4-1-5.2-1c-3.5,0-6.4,1.1-8.5,3.4c-2.2,2.3-3.3,5.2-3.3,8.7
			c0,3.5,1.1,6.3,3.2,8.6c2.1,2.2,4.9,3.4,8.1,3.4c1.9,0,3.7-0.3,5.4-1c1.7-0.7,3.4-1.7,4.9-3v5.9c-1.4,1-2.9,1.8-4.6,2.2
			c-1.7,0.5-3.5,0.8-5.4,0.8c-2.5,0-4.7-0.4-6.8-1.2c-2.1-0.8-3.9-2-5.5-3.5c-1.6-1.5-2.8-3.3-3.6-5.4c-0.9-2.1-1.3-4.3-1.3-6.6
			s0.4-4.6,1.3-6.6c0.8-2.1,2-3.9,3.6-5.4c1.6-1.6,3.4-2.8,5.5-3.6c2.1-0.8,4.3-1.2,6.7-1.2c1.9,0,3.7,0.3,5.4,0.8
			c1.7,0.5,3.4,1.4,5,2.5L404,74.1z"/>
		<path d="M431.7,98.4l-3.6-8.2h-12.7l-3.7,8.2h-5.5l15.5-33.3l15.5,33.3H431.7z M417.3,85.8h8.9l-3.3-7.3c-0.2-0.5-0.4-1-0.6-1.6
			c-0.2-0.6-0.4-1.3-0.6-2c-0.2,0.7-0.3,1.4-0.6,2c-0.2,0.6-0.4,1.2-0.6,1.7L417.3,85.8z"/>
		<path d="M440.2,98.4V66.3h5.2v27.4h11.7v4.7L440.2,98.4L440.2,98.4z"/>
		<path d="M500.5,74.1c-1.5-1.3-3-2.2-4.7-2.8c-1.7-0.6-3.4-1-5.2-1c-3.5,0-6.3,1.1-8.5,3.4c-2.2,2.3-3.3,5.2-3.3,8.7
			c0,3.5,1.1,6.3,3.2,8.6c2.2,2.2,4.8,3.4,8.1,3.4c1.9,0,3.7-0.3,5.4-1c1.7-0.7,3.4-1.7,4.9-3v5.9c-1.4,1-2.9,1.8-4.6,2.2
			c-1.7,0.5-3.4,0.8-5.4,0.8c-2.5,0-4.7-0.4-6.8-1.2c-2.1-0.8-3.9-2-5.5-3.5c-1.6-1.5-2.8-3.3-3.6-5.4c-0.8-2.1-1.3-4.3-1.3-6.6
			s0.4-4.6,1.3-6.6c0.8-2.1,2-3.9,3.6-5.4c1.6-1.6,3.4-2.8,5.5-3.6c2-0.8,4.3-1.2,6.7-1.2c1.9,0,3.7,0.3,5.4,0.8
			c1.7,0.5,3.4,1.4,5,2.5L500.5,74.1z"/>
		<path d="M507,98.4V66.3h17.9v4.4h-12.7v8h12.7v4.6h-12.7v10.4h12.7v4.7L507,98.4L507,98.4z"/>
		<path d="M530.9,98.4V65.1l20.4,19.6c0.5,0.5,1.1,1.1,1.7,1.8c0.6,0.6,1.2,1.3,1.8,2.1V66.3h4.8v33.3l-20.8-20
			c-0.5-0.5-1.1-1.1-1.6-1.7c-0.5-0.6-1-1.2-1.5-1.9v22.3L530.9,98.4L530.9,98.4z"/>
		<path d="M577.2,70.8v27.6H572V70.8h-8.5v-4.4h22.2v4.4H577.2z"/>
		<path d="M589.7,98.4V66.3h17.9v4.4h-12.7v8h12.7v4.6h-12.7v10.4h12.7v4.7L589.7,98.4L589.7,98.4z"/>
		<path d="M618.4,84v14.3h-4.9V66.3h7.3c2.1,0,3.8,0.1,5,0.4s2.2,0.7,3,1.4c1,0.8,1.8,1.8,2.3,3c0.5,1.2,0.8,2.6,0.8,4
			c0,2.6-0.6,4.6-1.9,6c-1.2,1.5-3.1,2.3-5.5,2.6l11,14.6h-5.9L619,84.1L618.4,84L618.4,84z M618.8,80h0.9c2.8,0,4.6-0.3,5.5-1
			c0.9-0.6,1.4-1.8,1.4-3.4c0-1.8-0.5-3-1.5-3.7c-1-0.7-2.8-1.1-5.4-1.1h-0.9L618.8,80L618.8,80z"/>
	</g>
	<g>
		<g>
			<g>
				<g>
					<path class="st0" d="M77.3,80.9c0.6,0.9,1.2,1.7,1.8,2.5c1.6,1.8,3.3,3.5,4.9,5.3c0.5,0.5,1,1.1,1.6,1.8
						c-0.9,0.1-1.3,0.7-1.8,1.3c-0.4,0.5-0.9,0.6-1.5,0.7c-0.3,0.1-0.6,0.2-0.9,0.4c1.3,0.4,2.4,0.2,3.4-0.8c0.5-0.5,1-0.9,1.8-0.8
						c0.3,0,0.3-0.2,0.3-0.4c-0.2-0.4-0.3-0.8-0.6-1.1c-1.1-1.5-2.3-2.9-3.4-4.4c-1.3-1.7-2.6-3.4-3.9-5.2c-0.6-0.9-0.6-0.7,0.2-1.4
						c0.8-0.7,1.8-1.3,2.6-1.9c0.2-0.2,0.4-0.1,0.6,0.1c1.4,1.5,2.8,3.1,3.9,4.9c1.4,2.1,2.7,4.3,3.5,6.6c0.3,0.9,0.6,1.9,0.5,2.8
						c0,1.6-1,2.6-2.6,2.6c-0.9,0-1.7,0.3-2.4,0.8c-0.8,0.6-1.5,0.7-2.4,0.4c-0.3-0.1-0.7-0.1-1.1-0.1c0.7,0.3,1.5,0.7,2.2,1
						c0.2,0.1,0.4,0,0.6,0c0.3-0.1,0.7-0.2,1-0.4c0.8-0.4,1.6-0.7,2.6-0.8c1.8-0.2,2.9-1.4,3.1-3.2c0.3-2-0.2-3.8-0.8-5.7
						c-0.1-0.4-0.3-0.8-0.4-1.2c0.3-0.2,0.7-0.3,1-0.5c0.3-0.2,0.5-0.5,0.9-0.8c-0.6,0.3-1.1,0.6-1.6,0.8c-0.2,0.1-0.4,0.1-0.5-0.2
						c-0.2-0.6-0.6-1.2-0.8-1.8c2,1.1,3.8,0.8,5.5-0.7c-0.6,0.2-1.3,0.3-1.9,0.5c-0.7,0.2-1.4,0.1-2.1-0.1c-0.7-0.3-1.5-0.6-2.2-1
						c-0.2-0.1-0.3-0.2-0.4-0.4c-0.7-1-1.5-2-2.5-2.9c-0.9-0.7-1.8-1.3-3.1-1.1c0.5-0.4,1.1-0.8,1.6-1.2c0.7,0.9,1.6,1.7,2.6,2.3
						c1.4,0.8,2.8,1.5,4.2,2.2c0,0,0.1-0.1,0.1-0.1c-0.4-0.3-0.7-0.7-1.1-1c-1-0.6-2.1-1.2-3.2-1.8c-0.7-0.4-1.4-0.8-2.1-1.3
						c-0.1-0.1-0.2-0.2-0.4-0.3c0.5-0.5,1-1.1,1.5-1.6c1.9,1.1,3.8,2.3,5.8,3.5c-1.5-1.8-3.4-3-5.6-3.6c0-0.1,0-0.1,0-0.1
						c0.6-0.9,0.5-1.8,0.2-2.7c-0.4-1.5-0.9-3-1.3-4.5c-0.1-0.2-0.1-0.3-0.1-0.5c-0.1,0.9,0,1.6,0.4,3c0.3,0.9,0.6,1.8,0.9,2.7
						c0.1,0.4,0.1,0.8-0.1,1.2c-0.6,1.2-1.6,2.1-2.7,2.9c-0.7,0.5-1.4,0.9-2.2,1.4c-1.7,1-3.1,2.3-4.4,3.8
						c-3.9,4.7-8.3,8.9-13.2,12.6c-2.1,1.5-4.2,3-6.6,4.1c-1.1,0.5-2.3,0.9-3.5,1c-1.6,0.2-3-0.4-3.9-1.8c-1.2-1.6-2-3.5-2.6-5.3
						c-1.1-3.2-1.9-6.5-2.6-9.9c-0.6-2.9-1-5.8-1.5-8.8c-0.3-1.7-0.4-3.4-0.6-5.2c-0.2-1.5-0.3-2.9-0.5-4.4
						c-0.1-1.2-0.2-2.5-0.3-3.7c-0.1-1.4-0.2-2.8-0.2-4.2c-0.1-1.6,0.2-3.1,0.8-4.5c1.1-2.9,2.3-5.7,3.5-8.6c0-0.1,0.1-0.2,0.1-0.2
						c-0.5,0.8-1,1.6-1.5,2.4c-0.9,1.6-1.8,3.3-2.6,5c-0.9,1.9-1.2,3.9-1.4,5.9c-0.3,3.2-0.4,6.4-0.3,9.6c0.1,1.8,0.2,3.7,0.3,5.5
						c0.1,1.5,0.2,3.1,0.4,4.6c0.4,2.6,0.8,5.2,1.2,7.8c0.6,3.2,1.4,6.5,2.6,9.5c0.8,2.1,1.8,4.2,3.3,6c0.4,0.5,0.8,0.9,1.2,1.4
						c1.3,1.4,2.9,1.6,4.6,1.2c2.1-0.5,3.9-1.6,5.6-2.7c5.2-3.5,10-7.5,14.2-12.1c1.3-1.4,2.5-2.9,3.8-4.4
						C77.1,81.2,77.2,81,77.3,80.9z"/>
					<path class="st0" d="M79.2,50.5c0.1-0.2,0.2-0.4,0.2-0.5c0-0.9,0.1-1.9,0-2.7c-0.2-1.8-1-3.4-2.7-4.3c-1.4-0.8-3.1-0.9-4.7-0.6
						c-2.2,0.4-3.8,1.6-5.1,3.3c-0.9,1.2-1.6,2.5-1.5,4.1c0.1,0.7,0.2,1.5,0.4,2.2c-0.2-0.3-0.4-0.6-0.6-1c-0.3-0.5-0.6-1.1-0.6-1.8
						c-0.1-2,0.6-3.8,1.8-5.4c0.2-0.3,0.4-0.5,0.6-0.8c-0.2,0-0.4,0-0.5,0c-0.4,0-0.7,0.2-0.9,0.6c-0.2,0.4-0.4,0.7-0.6,1.1
						c-0.5,0.7-1.1,0.9-1.9,0.7c-0.4-0.1-0.8-0.3-1.1-0.5c-1.7-1.1-2.9-2.7-3.8-4.4c-0.3-0.5-0.5-1-0.7-1.5c0,0,0.1,0,0.1,0
						c0.1,0.1,0.2,0.3,0.3,0.5c0.7,1.2,1.6,2.4,2.6,3.4c0.8,0.8,1.7,1.6,2.9,1.8c0.6,0.1,1,0,1.3-0.5c0.2-0.3,0.4-0.6,0.5-0.9
						c0.2-0.4,0.4-0.6,0.9-0.6c0.5,0,0.7-0.2,0.6-0.6c0-0.3-0.1-0.7-0.2-1.1c0.1,0.1,0.2,0.2,0.3,0.2c0.7,0.4,1.4,0.6,2.1,0.2
						c0.2-0.1,0.4-0.1,0.5-0.2c0.5-0.2,0.9-0.5,1.4-0.7c-0.9-0.6-1.4-0.5-1.8,0.3c0-0.1,0-0.2,0-0.3c0.1-0.7,0.4-0.9,1.1-0.7
						c0.3,0.1,0.5,0.2,0.8,0.3c0.9,0.2,1.3-0.1,1.4-1c0.1-1.1,0.1-2.2,0.3-3.2c0.1-0.9,0.3-1.7,1.1-2.2c1.3-0.8,2.1-2,2.9-3.2
						c0.5-0.9,1.1-1.8,1.6-2.7c-0.5,1.7-1,3.3-1.9,4.8c-0.4,0.6-0.8,1.1-1.4,1.5c-0.3,0.2-0.6,0.4-0.9,0.6c0.4,0.4,0.7,0.6,1.1,0.9
						c-0.4-0.1-0.8-0.1-1.2-0.2c-0.2,0-0.3,0-0.4,0.2c-0.5,1.5-0.5,2.9-0.3,4.5c0.7,0,1.5-0.1,2.1,0c3.1,0.5,6.3,3,5.9,7.4
						c-0.1,1-0.3,2.1-0.5,3.1c0.1,0,0.2,0.1,0.3,0.2c0.1,0.4,0.4,0.4,0.7,0.5c0.9,0,1.7,0.4,2.4,0.9c2,1.3,3.6,3,4.9,4.9
						c0.9,1.3,1.7,2.7,2.4,4c1.1,1.9,1.9,4,2.4,6.2c0.1,0.3,0.2,0.5,0.5,0.6c0.7,0.3,1.3,0.6,2,1c0.4,0.3,0.7,0.7,0.9,1.2
						c0.2,0.8,0.4,1.6,0.6,2.3c0.4,2.2,0.3,4.4-0.8,6.5c-0.1,0.2-0.3,0.4-0.4,0.7c0-0.6,0-1.2,0-1.8c-0.1-1.9-0.2-3.8-0.4-5.8
						c-0.1-1.2-0.4-2.2-1.4-2.9c-0.4-0.3-0.7-0.6-1.1-0.8c-1.2-0.8-1.6-0.7-2.6,0.3c-0.2,0.2-0.5,0.4-0.8,0.6c0,0,0-0.1-0.1-0.1
						c0.5-0.8,0.9-1.8,2.2-1.8c-0.2-0.5-0.3-1-0.5-1.4c-1.3-3.3-3.2-6.3-5.4-9c-1-1.3-2.2-2.5-3.7-3.2c-1.6-0.8-3.3-0.6-4.4,1
						c-0.4,0.6-0.7,1.3-1.1,2c0.2-0.8,0.4-1.5,0.7-2.2c0.3-0.9,0.7-1.8,1.5-2.4c0.2-0.2,0.4-0.5,0.6-0.8c0.1-0.2,0-0.5-0.3-0.4
						c-0.3,0.1-0.6,0.2-0.9,0.4C79,50.8,79.1,50.7,79.2,50.5z M67.9,42.1c-0.3-0.2-0.6-0.3-0.9-0.5c0.1,0.3,0.2,0.6,0.4,1
						C67.6,42.5,67.8,42.3,67.9,42.1z"/>
					<path class="st0" d="M54.3,39.9c-0.1-1.6,0-3.1,0.4-4.6c0.8-2.5,2.4-4.2,4.7-5.3c1.7-0.8,3.5-1.3,5.3-1.5
						c2.1-0.2,4.3-0.3,6.4-0.5c1.8-0.1,3.6-0.3,5.4-0.5c0.9-0.1,1.9-0.4,2.7-0.8c1.8-0.9,2-2.2,1.8-3.7c0-0.4-0.2-0.8-0.3-1.2
						c-0.2,1.7-1.4,2.4-2.9,2.8c-1.4,0.4-2.9,0.4-4.3,0.4c-1.8,0-3.6-0.1-5.4-0.1c-2.2,0-4.3,0-6.5,0.3c-1.7,0.2-3.3,0.7-4.8,1.6
						c-2.1,1.3-3.2,3.2-3.5,5.7c-0.3,2.5,0.1,4.8,0.7,7.2C54.2,39.8,54.3,39.9,54.3,39.9z"/>
					<path class="st0" d="M60.7,70.3c1.1,3.9,3,6.8,7.4,7.2c-0.3,0.3-0.6,0.5-0.9,0.7c-1.6,1.3-3.5,2.2-5.3,3.2c-1,0.6-2,1.2-3,1.8
						c-0.4,0.2-0.8,0.5-1.2,0.8c0-0.3,0-0.5,0.1-0.7c0.4-2.4,0-4.8-0.5-7.2c-0.4-2-0.8-4-0.7-6c0.1-1.6,0.3-3.1,0.4-4.7
						c0.2-1.5,0.4-3,0.5-4.5c-0.4,1.4-0.9,2.8-1.2,4.1c-0.4,1.9-0.9,3.8-1.1,5.6c-0.1,1.2,0,2.5,0.1,3.7c0.1,1.2,0.3,2.4,0.4,3.6
						c0.3,2,0.4,3.9,0.2,5.9c-0.1,1.3-0.4,2.5-0.8,3.7c0,0.1-0.1,0.3-0.1,0.5c0.3-0.5,0.5-0.9,0.8-1.3c0.5-0.8,1.3-1.4,2.1-2
						c1.8-1.3,3.7-2.2,5.6-3.1c1.3-0.6,2.6-1.3,3.8-2c2.1-1.2,3.5-3.2,4.6-5.3c1.1-2,2.1-4,3.2-6c0.4-0.7,0.8-1.3,1.2-2
						c0.8-1.4,2-2.2,3.2-3.1c0.4-0.3,0.8-0.6,1.2-1c-1.2,0.5-2.5,1-3.5,1.8c-0.4,0.3-0.7,0.3-1.1,0.2c-1.1-0.4-2-1.1-2.8-1.9
						c-1.6-1.4-3.2-2.9-4.9-4.3c-0.4-0.3-0.9-0.6-1.3-0.8c1.1,1,2.1,2,3.1,3c1.3,1.2,2.6,2.4,3.6,3.9c0.4,0.6,0.7,1.3,1,1.9
						c0.1,0.1,0.1,0.4,0,0.4c-1.4,1.8-2.4,3.9-3.5,6c-0.6,1-1.1,2-1.7,2.9c-0.1,0.1-0.3,0.3-0.5,0.3c-1.7-0.2-3.3-0.4-4.8-1.3
						C63,73.5,62,72.2,61,70.8C61,70.6,60.9,70.5,60.7,70.3C60.8,70.4,60.8,70.4,60.7,70.3z"/>
					<path class="st0" d="M46.1,25.1c0.7-1.3,1.4-2.6,2.2-3.8c1.9-2.8,3.9-5.5,6.6-7.6c2.3-1.8,4.9-2.8,7.8-3.1
						c2.9-0.2,5.6,0.5,8.2,1.8c2.2,1.1,4.1,2.5,5.9,4.1c0,0,0.1,0.1,0.2,0.2c-0.1-0.2-0.1-0.3-0.2-0.4c-1.7-3.7-4.4-6.4-8.2-8
						c-2.3-1-4.7-1.3-7.1-0.9c-3.6,0.5-6.6,2.2-9.1,4.8c-2.5,2.6-4.1,5.7-5.3,9C46.7,22.5,46.4,23.8,46.1,25.1
						C46,25.1,46.1,25.1,46.1,25.1z"/>
					<path class="st0" d="M45,29.5c-0.9,2.6-2.1,5.1-3.8,7.3c-1.1,1.5-2.4,3-3.5,4.5c-1.1,1.4-2.1,2.8-2.7,4.5
						c-0.8,2.2-0.6,4.4,0.2,6.5c0.9,2.5,2.2,4.7,3.7,6.9c0.1,0.2,0.2,0.3,0.4,0.5c-0.4-1.1-0.7-2.3-1-3.4c-0.4-1.5-0.6-3-0.6-4.5
						c0-2.6,0.8-4.9,2-7.1c0.6-1.2,1.2-2.4,1.9-3.5c1.1-1.8,1.9-3.7,2.5-5.7C44.5,33.4,44.9,31.5,45,29.5z"/>
					<path class="st0" d="M47.2,37.4c0.2,3.4,1,6.7,3.2,9.5c1.4,1.7,3.1,3,5,4.1c1.9,1,3.9,1.9,5.8,2.9c1.4,0.7,2.7,1.6,3.8,2.9
						c1.4,1.6,2,3.5,2.2,5.6c0.1-2.6-0.4-5-2-7.1c-1.1-1.5-2.6-2.7-4.1-3.7c-2-1.3-4-2.5-5.9-3.7c-2.2-1.4-4.1-3-5.6-5.2
						C48.4,41,47.7,39.3,47.2,37.4z"/>
					<path class="st0" d="M64.6,16c-1.8,0.1-3.5,0.4-5.2,0.8c-2.4,0.6-4.6,1.5-6.5,3c-2.4,1.9-3.9,4.5-4.4,7.5
						c-0.6,3.3-0.1,6.6,0.7,9.8c0.1,0.5,0.3,1,0.5,1.6c-0.1-1.1-0.2-2.2-0.2-3.3c0-1.4,0-2.9,0-4.3c0-1.4,0.3-2.7,0.7-4
						c1.1-3.5,3.4-5.9,6.4-7.7c2.4-1.5,5.1-2.4,7.7-3.3C64.4,16,64.5,16,64.6,16z"/>
					<path class="st0" d="M81.7,61.2c-0.5-0.9-1.2-1.5-2.1-1.9c-1.4-0.6-2.8-1.1-4.2-1.6c-0.3-0.1-0.6-0.2-0.9-0.3
						c-1.1-0.3-1.8-1.1-2.5-2c0.6-0.1,1-0.4,1.3-1c-0.2,0.1-0.5,0.2-0.7,0.3c-0.6,0.2-1.1,0.2-1.7-0.1c-0.8-0.4-1.7-0.3-2.6,0
						c-0.4,0.1-0.6,0.5-0.6,0.9c0,0.7,0.2,1.3,0.6,1.8c0-0.4-0.1-0.8-0.1-1.2c0-0.6,0.4-0.8,0.9-0.7c0.8,0.1,1.6,0.4,2.2,0.9
						c1.2,1,2.5,1.9,4,2.3c0.6,0.1,1.2,0.3,1.8,0.5C78.8,59.5,80.4,60,81.7,61.2z"/>
					<path class="st0" d="M84.2,56.5c0,0.2,0,0.4,0,0.5c0.1,1.6,0,3.2-0.6,4.8c-0.1,0.2-0.3,0.4-0.5,0.5c-0.5,0.3-1,0.6-1.5,1
						c-0.5,0.5-1,1.1-1.4,1.7c0.3-0.3,0.6-0.6,0.9-0.8c0.4-0.4,0.8-0.9,1.3-1.2c0.4-0.2,0.9-0.4,1.3-0.4c0.5-0.1,1.1,0.5,0.9,1.1
						c-0.1,0.4-0.2,0.8-0.3,1.2c0.2-0.3,0.4-0.7,0.5-1c0.2-0.5,0.1-1-0.4-1.4c-0.2-0.1-0.2-0.3-0.1-0.5c0.8-1.8,0.6-3.5,0-5.3
						C84.4,56.6,84.3,56.6,84.2,56.5z"/>
					<path class="st0" d="M94.4,72.8c-2-2.5-4.4-4.2-7.7-3.6C89.8,69.2,92.1,70.9,94.4,72.8z"/>
					<path class="st0" d="M86.9,71c1.6,1,3.2,2,4.8,3.1C90.2,72.7,88.9,71.2,86.9,71z"/>
				</g>
				<g>
					<g>
						<path class="st1" d="M44,75.5c-1,0.1-2,0.2-2.9,0.3c-0.5,0-1,0-1.5,0c-0.5,0-1,0-1.5,0c-1,0-2-0.1-3-0.1c-1-0.1-2-0.2-2.9-0.3
							c-1-0.1-2-0.3-3-0.5c-1-0.2-2-0.4-2.9-0.7c-1-0.3-1.9-0.6-2.9-0.9c-0.9-0.3-1.9-0.7-2.8-1.1c-0.9-0.4-1.9-0.9-2.8-1.3
							c-0.9-0.5-1.8-1-2.7-1.6c-0.9-0.6-1.7-1.2-2.5-1.9c-0.8-0.7-1.6-1.4-2.3-2.1c-0.7-0.8-1.4-1.6-2-2.4C7.6,61.9,7,61,6.5,60.1
							c-0.5-0.9-1-1.9-1.4-2.9c-0.4-1-0.7-2-1-3l-0.4-1.4L4.9,52c0.2-0.1,0.3-0.2,0.4-0.2c0.1-0.1,0.3-0.1,0.4-0.2
							c0.3-0.1,0.5-0.3,0.8-0.4C6.8,51,7,50.8,7.3,50.7c0.2-0.1,0.5-0.2,0.8-0.4c0.5-0.2,1.1-0.5,1.6-0.6c0.5-0.2,1.1-0.4,1.6-0.6
							l0.8-0.2c0.3-0.1,0.5-0.1,0.8-0.2c0.3-0.1,0.5-0.1,0.8-0.2c0.3-0.1,0.5-0.1,0.8-0.2c0.6-0.1,1.1-0.2,1.6-0.4l1.7-0.3
							c0.3,0,0.6-0.1,0.8-0.1c0.3,0,0.6-0.1,0.8-0.1l0.8-0.1c0.3,0,0.6,0,0.8,0c0.6,0,1.1,0,1.7-0.1c0.6,0,1.1,0,1.7,0
							c0.6,0,1.1,0,1.6,0.1c0.6,0,1.1,0.1,1.6,0.1c0.5,0,1.1,0.2,1.6,0.2c0.5,0.1,1.1,0.2,1.6,0.3c-0.6,0.1-1.1,0.1-1.6,0.2
							l-0.8,0.1c-0.1,0-0.3,0-0.4,0l-0.4,0.1c-0.5,0.1-1.1,0.1-1.6,0.2l-0.4,0.1c-0.1,0-0.3,0-0.4,0.1l-0.8,0.1
							c-0.5,0.1-1.1,0.2-1.6,0.3c-0.5,0.1-1,0.2-1.5,0.4c-0.3,0.1-0.5,0.1-0.8,0.2l-0.8,0.2c-0.3,0.1-0.5,0.1-0.8,0.2
							c-0.2,0.1-0.5,0.1-0.8,0.2l-1.5,0.5c-0.5,0.2-1,0.3-1.5,0.5c-0.5,0.2-1,0.4-1.4,0.6c-0.2,0.1-0.5,0.2-0.7,0.3l-0.7,0.3
							c-0.2,0.1-0.5,0.2-0.7,0.3c-0.2,0.1-0.5,0.2-0.7,0.3c-0.5,0.2-0.9,0.5-1.4,0.7c-0.2,0.1-0.4,0.2-0.7,0.4l-0.3,0.2l-0.3,0.2
							C8.2,54.7,8,54.9,7.8,55c-0.1,0-0.2,0.1-0.3,0.2c-0.1,0.1-0.2,0.1-0.3,0.2L8,53.1c0.3,0.9,0.6,1.7,1,2.5
							c0.4,0.8,0.8,1.6,1.2,2.4c0.5,0.8,0.9,1.5,1.5,2.2c0.1,0.2,0.3,0.4,0.4,0.5l0.2,0.3l0.2,0.3c0.1,0.2,0.3,0.3,0.4,0.5l0.4,0.5
							c0.6,0.6,1.3,1.3,1.9,1.9c0.7,0.6,1.4,1.1,2.1,1.7c0.7,0.5,1.5,1,2.3,1.5c0.8,0.5,1.6,0.9,2.4,1.4c0.8,0.4,1.7,0.8,2.5,1.2
							c0.9,0.4,1.7,0.8,2.6,1.1c0.9,0.3,1.8,0.7,2.7,1c0.9,0.3,1.8,0.6,2.7,0.9c0.9,0.3,1.8,0.5,2.8,0.8c0.9,0.2,1.9,0.5,2.8,0.7
							l1.4,0.3l1.4,0.3C42.1,75.1,43,75.3,44,75.5z"/>
						<path class="st1" d="M36.2,48.3c-0.1-0.3-0.2-0.6-0.3-0.9c-0.1-0.4-0.3-0.8-0.4-1.1l-0.2-0.6l-0.2-0.6l-0.2-0.6L34.7,44
							l-0.2-0.6c-0.1-0.2-0.1-0.4-0.2-0.6c-0.2-0.8-0.4-1.5-0.6-2.3l-0.3-1.2l-0.2-1.2c-0.1-0.8-0.3-1.5-0.3-2.3l-0.1-0.6
							c0-0.2,0-0.4,0-0.6c0-0.4-0.1-0.8-0.1-1.1l0-1.1c0-0.2,0-0.4,0-0.6l0-0.6c0-0.2,0-0.4,0-0.6l0-0.6l0-0.6c0-0.2,0-0.4,0.1-0.6
							l0.1-1.1c0-0.4,0.1-0.7,0.2-1.1l0.1-0.6l0.1-0.5c0.1-0.4,0.2-0.8,0.3-1.1l0.3-1.1c0.1-0.2,0.1-0.4,0.2-0.5l0.2-0.5
							c0.1-0.4,0.2-0.7,0.4-1.1l0.4-1.1c0.1-0.2,0.1-0.4,0.2-0.5l0-0.1c0.3,0.1,0.5,0.2,0.8,0.3c0.4,0.1,0.8,0.3,1.2,0.5
							c0.4,0.2,0.8,0.4,1.2,0.6l0.6,0.3l0.6,0.3c0.4,0.2,0.8,0.4,1.2,0.7c0.2,0.1,0.4,0.2,0.6,0.4c0.2,0.1,0.4,0.2,0.6,0.4
							c0.4,0.2,0.8,0.5,1.1,0.7c0.4,0.3,0.8,0.5,1.1,0.8c0.4,0.3,0.7,0.6,1.1,0.8l0.5,0.4c0,0,0.1,0,0.1,0.1
							c0.1-0.9,0.4-1.7,0.7-2.5c-0.2-0.3-0.5-0.5-0.7-0.8c-0.3-0.4-0.7-0.7-1-1.1c-0.4-0.3-0.7-0.7-1.1-1c-0.2-0.2-0.4-0.3-0.6-0.5
							c-0.2-0.2-0.4-0.3-0.6-0.5c-0.2-0.1-0.4-0.3-0.6-0.5l-0.6-0.4l-0.6-0.4l-0.6-0.4l-0.6-0.4L39.2,17c-0.4-0.2-0.9-0.5-1.3-0.7
							c-0.4-0.2-0.9-0.5-1.4-0.7c-0.2-0.1-0.5-0.2-0.7-0.3c-0.1,0-0.2-0.1-0.4-0.1l-0.2-0.1L35,15.1l-1.5-0.5L32.6,16L32,17.2
							l-0.3,0.6c-0.1,0.2-0.2,0.4-0.3,0.6l-0.6,1.2c-0.2,0.4-0.3,0.8-0.5,1.2c-0.3,0.8-0.6,1.7-0.8,2.5c-0.1,0.4-0.2,0.9-0.3,1.3
							l-0.1,0.6l-0.1,0.7l-0.1,0.7c0,0.2-0.1,0.4-0.1,0.7l-0.1,1.3c0,0.2,0,0.4,0,0.7l0,0.7l0,0.7c0,0.2,0,0.4,0,0.7
							c0,0.4,0,0.9,0.1,1.3l0.1,1.3c0.1,0.4,0.1,0.9,0.2,1.3c0.1,0.4,0.1,0.9,0.2,1.3c0.1,0.4,0.2,0.9,0.3,1.3
							c0.1,0.4,0.2,0.9,0.3,1.2l0.4,1.2c0.1,0.4,0.3,0.8,0.4,1.2c0.1,0.4,0.3,0.8,0.5,1.2c0.1,0.4,0.3,0.8,0.5,1.2
							c0.1,0.2,0.2,0.4,0.3,0.6l0.3,0.6l0.3,0.6l0.3,0.6l0.3,0.6l0.3,0.5l0.3,0.5l0.4,0.5c0.4,0.7,0.9,1.4,1.4,2.1
							c0.3,0.3,0.5,0.6,0.8,1C36.1,50.4,36.1,49.3,36.2,48.3z"/>
						<path class="st1" d="M22.2,87.1c-0.5,0-0.9-0.1-1.4-0.1c-0.5-0.1-0.9-0.2-1.4-0.3c-0.4-0.1-0.9-0.2-1.3-0.4s-0.9-0.3-1.3-0.5
							c-0.4-0.2-0.9-0.4-1.3-0.5c-0.2-0.1-0.4-0.2-0.6-0.3c-0.2-0.1-0.4-0.2-0.6-0.3c-0.4-0.2-0.8-0.5-1.2-0.7
							c-0.4-0.2-0.8-0.5-1.2-0.8c-0.4-0.3-0.8-0.5-1.1-0.9c-0.4-0.3-0.7-0.6-1.1-0.9c-0.3-0.3-0.7-0.7-1-1c-0.3-0.3-0.6-0.7-0.9-1.1
							c-0.3-0.4-0.6-0.8-0.9-1.1c-0.2-0.2-0.3-0.4-0.4-0.6c-0.1-0.2-0.3-0.4-0.4-0.6l-0.4-0.6c-0.1-0.2-0.2-0.4-0.3-0.6l-0.2-0.3
							L5.1,75l-0.3-0.7l-0.6-1.3L5,72.2c0.2-0.2,0.3-0.3,0.5-0.5s0.3-0.3,0.5-0.5c0.3-0.3,0.7-0.6,1-0.9c0.2-0.1,0.4-0.3,0.6-0.4
							c0.2-0.1,0.3-0.3,0.5-0.4c0.4-0.3,0.8-0.5,1.1-0.8c0.2-0.1,0.4-0.2,0.6-0.4c0.2-0.1,0.4-0.2,0.6-0.4l0.6-0.3
							c0.2-0.1,0.4-0.2,0.6-0.3c0.2-0.1,0.4-0.2,0.6-0.3l0.3-0.1c0.1,0,0.2-0.1,0.3-0.1c0.2-0.1,0.4-0.1,0.7-0.2
							c0.2,0,0.5-0.1,0.7-0.1c-0.2,0.2-0.3,0.3-0.4,0.5c-0.1,0.1-0.2,0.2-0.2,0.2l-0.2,0.2c-0.2,0.2-0.3,0.3-0.4,0.5
							c-0.1,0.2-0.3,0.3-0.4,0.5c-0.1,0.2-0.3,0.4-0.4,0.5l-0.4,0.5c-0.3,0.3-0.5,0.7-0.8,1l-0.4,0.5c-0.1,0.2-0.2,0.4-0.4,0.5
							l-0.8,1l-0.8,1l-0.4,0.5c-0.1,0.2-0.2,0.3-0.3,0.5l0.3-2.1l0.3,0.5l0.2,0.3l0.2,0.2l0.3,0.5l0.4,0.5c0.1,0.2,0.2,0.3,0.3,0.5
							c0.1,0.2,0.2,0.3,0.4,0.5c0.2,0.3,0.5,0.6,0.8,0.9c0.2,0.3,0.5,0.6,0.8,0.9l0.4,0.5c0.1,0.1,0.3,0.3,0.4,0.4
							c0.1,0.2,0.3,0.3,0.4,0.5c0.1,0.1,0.3,0.3,0.4,0.4c0.3,0.3,0.6,0.6,0.9,0.9c0.3,0.3,0.6,0.6,0.9,0.9l0.9,0.9l0.9,0.9
							c0.3,0.3,0.6,0.6,1,0.9c0.3,0.3,0.7,0.6,1,0.9c0.3,0.3,0.7,0.6,1,0.9l1,0.9C21.5,86.5,21.8,86.8,22.2,87.1z"/>
						<path class="st1" d="M19.5,48.8c-0.4-0.3-0.7-0.7-1.1-1.1c-0.2-0.2-0.3-0.4-0.5-0.6c-0.2-0.2-0.3-0.4-0.5-0.6
							c-0.2-0.2-0.3-0.4-0.4-0.6l-0.4-0.6c-0.3-0.4-0.5-0.9-0.8-1.3l-0.3-0.7c-0.1-0.2-0.2-0.5-0.3-0.7c-0.2-0.5-0.4-0.9-0.6-1.4
							c-0.2-0.5-0.3-1-0.5-1.5c-0.1-0.2-0.2-0.5-0.2-0.7l-0.2-0.8c-0.1-0.5-0.2-1-0.3-1.5c-0.1-0.5-0.1-1-0.2-1.5c0-0.3,0-0.5,0-0.8
							c0-0.3,0-0.5,0-0.8c0-0.2,0-0.5,0-0.8l0-0.8c0-0.3,0-0.5,0.1-0.8c0-0.3,0-0.5,0.1-0.8c0.1-0.5,0.1-1,0.2-1.6
							c0.1-0.2,0.1-0.5,0.2-0.8l0.2-0.8c0.1-0.2,0.1-0.5,0.2-0.8c0.1-0.2,0.2-0.5,0.2-0.7l0.4-1.4l1.2-0.1c0.3,0,0.6,0,0.8,0
							c0.3,0,0.5,0,0.8,0c0.5,0,1.1,0,1.6,0c0.3,0,0.5,0,0.8,0c0.3,0,0.5,0,0.8,0l0.8,0.1l0.8,0.1c0.3,0,0.5,0.1,0.8,0.1
							c0.3,0,0.5,0.1,0.8,0.1c0.3,0,0.5,0.1,0.8,0.2c0.3,0.1,0.5,0.1,0.8,0.2c0.3,0.1,0.5,0.1,0.8,0.2c0.3,0.1,0.5,0.2,0.8,0.3
							c0.2,0.1,0.5,0.2,0.8,0.3c0.2,0.1,0.5,0.3,0.7,0.4c-0.3,0-0.5,0-0.8,0.1c-0.1,0-0.2,0-0.4,0l-0.4,0c-0.3,0-0.5,0-0.8,0.1
							c-0.2,0-0.5,0.1-0.8,0.1c-0.3,0-0.5,0.1-0.8,0.1L23.9,27c-0.2,0-0.5,0.1-0.8,0.1l-0.8,0.1l-1.5,0.3c-0.2,0-0.5,0.1-0.7,0.1
							c-0.2,0-0.5,0.1-0.7,0.1c-0.2,0-0.5,0.1-0.8,0.1c-0.2,0-0.5,0.1-0.7,0.1l-0.7,0.1l-0.7,0.1l1.6-1.5c-0.1,0.5-0.2,0.9-0.2,1.3
							c-0.1,0.5-0.1,0.9-0.2,1.3c-0.1,0.5-0.1,0.9-0.1,1.3c0,0.2,0,0.4-0.1,0.7c0,0.2,0,0.4,0,0.7l0,0.7c0,0.2,0,0.4,0,0.7
							c0,0.5,0,0.9,0,1.4c0,0.5,0,0.9,0.1,1.4c0,0.5,0.1,0.9,0.1,1.4c0,0.5,0.1,0.9,0.1,1.4c0,0.2,0.1,0.5,0.1,0.7
							c0,0.2,0.1,0.5,0.1,0.7c0.1,0.5,0.1,0.9,0.2,1.4c0,0.2,0.1,0.5,0.1,0.7l0.1,0.7l0.1,0.7c0,0.2,0.1,0.5,0.1,0.7l0.3,1.4
							l0.2,0.7l0.2,0.7L19.5,48.8z"/>
						<path class="st1" d="M121.8,53c-0.2-0.1-0.3-0.2-0.4-0.3c-0.1-0.1-0.3-0.1-0.4-0.2c-0.3-0.1-0.5-0.3-0.8-0.4
							c-0.3-0.1-0.5-0.2-0.8-0.4c-0.3-0.1-0.5-0.2-0.8-0.4c-0.5-0.2-1-0.5-1.6-0.6c-0.5-0.2-1.1-0.4-1.6-0.5l-0.8-0.2
							c-0.3-0.1-0.6-0.1-0.8-0.2c-0.3-0.1-0.5-0.1-0.8-0.2c-0.3-0.1-0.5-0.1-0.8-0.2c-0.6-0.1-1.1-0.2-1.6-0.4l-1.6-0.3
							c-0.3,0-0.6-0.1-0.8-0.1c-0.3,0-0.6,0-0.8-0.1l-0.8-0.1c-0.3,0-0.6,0-0.8-0.1c-0.6,0-1.1,0-1.6-0.1c-0.6,0-1.1,0-1.6,0
							c-0.6,0-1.1,0-1.6,0.1c-0.6,0-1.1,0.1-1.6,0.1c-0.5,0-1.1,0.1-1.6,0.2c-0.6,0.1-1.1,0.2-1.6,0.3c0.6,0.1,1.1,0.1,1.6,0.2
							l0.8,0.1c0.1,0,0.3,0,0.4,0l0.4,0.1c0.5,0.1,1.1,0.2,1.6,0.2l0.4,0.1c0.1,0,0.3,0,0.4,0l0.8,0.1c0.5,0.1,1.1,0.2,1.6,0.3
							s1,0.2,1.6,0.4c0.2,0.1,0.5,0.1,0.8,0.2l0.8,0.2c0.3,0.1,0.5,0.1,0.8,0.2s0.5,0.1,0.8,0.2l1.5,0.5c0.5,0.1,1,0.3,1.5,0.5
							s1,0.4,1.5,0.6c0.2,0.1,0.5,0.2,0.7,0.3l0.7,0.3c0.2,0.1,0.5,0.2,0.7,0.3c0.2,0.1,0.5,0.2,0.7,0.3c0.5,0.2,0.9,0.5,1.4,0.7
							c0.2,0.1,0.4,0.2,0.7,0.4l0.4,0.2l0.2,0.1c-0.1,0.4-0.3,0.8-0.4,1.1c-0.4,0.8-0.8,1.6-1.2,2.4c-0.4,0.8-0.9,1.5-1.5,2.2
							c-0.1,0.2-0.3,0.4-0.4,0.5l-0.2,0.2l-0.2,0.2c-0.1,0.2-0.3,0.3-0.4,0.5l-0.4,0.5c-0.6,0.6-1.3,1.3-1.9,1.9
							c-0.7,0.6-1.4,1.1-2.1,1.7c-0.7,0.5-1.5,1-2.3,1.5c-0.8,0.5-1.6,0.9-2.4,1.4c-0.8,0.4-1.7,0.8-2.5,1.2
							c-0.9,0.4-1.7,0.8-2.6,1.1c-0.8,0.3-1.6,0.6-2.5,0.9c0.4,0.9,0.5,1.9,0.5,3c0,0,0.1,0,0.1,0c1-0.2,2-0.4,2.9-0.7
							c1-0.3,1.9-0.6,2.9-0.9c0.9-0.3,1.9-0.7,2.8-1.1c0.9-0.4,1.9-0.9,2.8-1.3c0.9-0.5,1.8-1,2.7-1.6c0.9-0.6,1.7-1.2,2.5-1.9
							c0.8-0.7,1.6-1.4,2.3-2.2c0.7-0.8,1.4-1.6,2.1-2.4c0.6-0.9,1.2-1.8,1.7-2.7c0.5-0.9,1-1.9,1.4-2.9c0.4-1,0.7-2,1-3l0.4-1.4
							L121.8,53z"/>
						<path class="st1" d="M87.8,53.2c0.4-0.8,0.8-1.5,1.1-2.2l0.5-1.1l0.5-1.1c0.1-0.4,0.3-0.7,0.4-1.1c0.1-0.4,0.3-0.8,0.4-1.1
							s0.3-0.8,0.4-1.1l0.2-0.6l0.2-0.6l0.2-0.6L92,43l0.2-0.6c0.1-0.2,0.1-0.4,0.2-0.6c0.2-0.8,0.4-1.5,0.6-2.3l0.2-1.2l0.2-1.1
							c0.1-0.8,0.3-1.6,0.3-2.3l0.1-0.6c0-0.2,0-0.4,0-0.6c0-0.4,0.1-0.8,0.1-1.2l0-1.2c0-0.2,0-0.4,0-0.6l0-0.6c0-0.2,0-0.4,0-0.6
							l0-0.6l0-0.6c0-0.2,0-0.4-0.1-0.6l-0.1-1.1c-0.1-0.4-0.1-0.8-0.2-1.1l-0.1-0.6l-0.1-0.5c-0.1-0.4-0.2-0.8-0.3-1.1l-0.3-1.1
							c-0.1-0.2-0.1-0.4-0.2-0.5l-0.2-0.5c-0.1-0.4-0.2-0.7-0.4-1.1l-0.4-1.1c-0.1-0.2-0.1-0.4-0.2-0.5L91,18.1l-0.5-1l2.4,0.9
							l-0.1,0l-0.1,0l-0.2,0l-0.3,0.1c-0.2,0.1-0.4,0.1-0.6,0.2c-0.4,0.1-0.8,0.3-1.2,0.5c-0.4,0.2-0.8,0.3-1.2,0.5
							c-0.4,0.2-0.8,0.4-1.2,0.6l-0.6,0.3l-0.6,0.3c-0.4,0.2-0.8,0.4-1.2,0.7c-0.2,0.1-0.4,0.2-0.6,0.3c-0.2,0.1-0.4,0.2-0.6,0.4
							c-0.4,0.2-0.8,0.5-1.1,0.7c-0.4,0.3-0.8,0.5-1.1,0.8c-0.4,0.3-0.7,0.6-1.1,0.8l-0.5,0.5c-0.2,0.1-0.4,0.3-0.5,0.4
							c-0.2,0.2-0.4,0.3-0.5,0.5L79,26.1c-0.3,0.3-0.7,0.7-1,1c-0.3,0.3-0.7,0.7-1,1c-0.2,0.2-0.3,0.4-0.5,0.5l-0.4,0.5
							c-0.3,0.4-0.6,0.8-0.9,1.1c0.1-0.2,0.1-0.5,0.2-0.7c0.1-0.2,0.2-0.5,0.3-0.7l0.3-0.7c0.1-0.2,0.2-0.4,0.3-0.7
							c0.2-0.4,0.4-0.9,0.7-1.3c0.1-0.2,0.2-0.4,0.4-0.6c0.1-0.2,0.2-0.4,0.4-0.6c0.1-0.2,0.3-0.4,0.4-0.6c0.1-0.2,0.3-0.4,0.4-0.6
							c0.3-0.4,0.6-0.8,0.9-1.2c0.3-0.4,0.6-0.8,1-1.1c0.3-0.4,0.7-0.7,1-1c0.4-0.3,0.7-0.7,1.1-1c0.2-0.2,0.4-0.3,0.6-0.5
							c0.2-0.2,0.4-0.3,0.6-0.5c0.2-0.2,0.4-0.3,0.6-0.5l0.6-0.4l0.6-0.4l0.6-0.4l0.6-0.4l0.6-0.4c0.4-0.2,0.9-0.5,1.3-0.7
							c0.4-0.2,0.9-0.5,1.4-0.6c0.2-0.1,0.5-0.2,0.7-0.3c0.1,0,0.2-0.1,0.4-0.1l0.2-0.1l0.2-0.1l1.5-0.5l0.8,1.5l0.6,1.1l0.3,0.6
							c0.1,0.2,0.2,0.4,0.3,0.6l0.6,1.2c0.2,0.4,0.3,0.8,0.5,1.2c0.3,0.8,0.6,1.7,0.8,2.5c0.1,0.4,0.2,0.9,0.3,1.3l0.1,0.6l0.1,0.7
							l0.1,0.7c0,0.2,0.1,0.4,0.1,0.7l0.1,1.3c0,0.2,0,0.4,0,0.7l0,0.7l0,0.7c0,0.2,0,0.4,0,0.7c0,0.4,0,0.9-0.1,1.3L98,32.9
							c-0.1,0.4-0.1,0.9-0.2,1.3c-0.1,0.4-0.1,0.9-0.2,1.3c-0.1,0.4-0.2,0.9-0.3,1.3c-0.1,0.4-0.2,0.8-0.3,1.2l-0.4,1.2
							c-0.1,0.4-0.3,0.8-0.4,1.2c-0.1,0.4-0.3,0.8-0.5,1.2c-0.1,0.4-0.3,0.8-0.5,1.2c-0.1,0.2-0.2,0.4-0.3,0.6l-0.3,0.6l-0.3,0.6
							L94,45.2l-0.3,0.6l-0.3,0.5L93,46.8l-0.4,0.5c-0.4,0.7-0.9,1.4-1.4,2.1c-0.5,0.7-1,1.3-1.6,2C89,52,88.5,52.6,87.8,53.2z"/>
						<path class="st1" d="M104.6,87.1c0.3-0.3,0.7-0.6,1-0.9l1-0.9c0.3-0.3,0.7-0.6,1-0.9c0.3-0.3,0.7-0.6,1-0.9
							c0.3-0.3,0.6-0.6,1-0.9l0.9-0.9l0.9-0.9c0.3-0.3,0.6-0.6,0.9-0.9c0.3-0.3,0.6-0.6,0.9-0.9c0.1-0.1,0.3-0.3,0.4-0.4
							c0.1-0.1,0.3-0.3,0.4-0.5c0.1-0.1,0.3-0.3,0.4-0.4l0.4-0.5c0.3-0.3,0.5-0.6,0.8-0.9c0.3-0.3,0.5-0.6,0.8-0.9
							c0.1-0.2,0.2-0.3,0.4-0.5c0.1-0.2,0.2-0.3,0.4-0.5l0.4-0.5l0.3-0.5l0.2-0.2l0.2-0.3l0.3-0.5l0.3,2.1c-0.1-0.2-0.2-0.3-0.4-0.5
							l-0.4-0.5l-0.8-1l-0.8-1c-0.1-0.2-0.3-0.3-0.4-0.5l-0.4-0.5c-0.3-0.3-0.5-0.7-0.8-1l-0.4-0.5c-0.1-0.1-0.3-0.3-0.4-0.5
							c-0.1-0.2-0.3-0.3-0.4-0.5c-0.1-0.2-0.3-0.4-0.4-0.5l-0.2-0.2c-0.1-0.1-0.1-0.2-0.2-0.2c-0.1-0.2-0.3-0.3-0.5-0.5
							c0.2,0,0.5,0.1,0.7,0.1c0.2,0,0.4,0.1,0.7,0.2c0.1,0,0.2,0.1,0.3,0.1l0.3,0.1c0.2,0.1,0.4,0.2,0.6,0.3s0.4,0.2,0.6,0.3
							l0.6,0.3c0.2,0.1,0.4,0.2,0.6,0.4c0.2,0.1,0.4,0.2,0.6,0.4c0.4,0.2,0.8,0.5,1.1,0.8c0.2,0.1,0.4,0.3,0.5,0.4
							c0.2,0.1,0.4,0.3,0.5,0.4c0.4,0.3,0.7,0.6,1,0.9c0.2,0.1,0.3,0.3,0.5,0.5c0.2,0.2,0.3,0.3,0.5,0.5l0.8,0.9l-0.6,1.3l-0.3,0.7
							l-0.1,0.3l-0.2,0.3c-0.1,0.2-0.2,0.4-0.3,0.6l-0.4,0.6c-0.1,0.2-0.2,0.4-0.4,0.6c-0.1,0.2-0.3,0.4-0.4,0.6
							c-0.3,0.4-0.6,0.8-0.9,1.1s-0.6,0.7-0.9,1.1c-0.3,0.4-0.7,0.7-1,1c-0.4,0.3-0.7,0.6-1.1,0.9s-0.7,0.6-1.1,0.9
							c-0.4,0.3-0.8,0.5-1.2,0.8c-0.4,0.3-0.8,0.5-1.2,0.7c-0.2,0.1-0.4,0.2-0.6,0.3c-0.2,0.1-0.4,0.2-0.6,0.3
							c-0.4,0.2-0.8,0.4-1.3,0.5c-0.4,0.2-0.9,0.3-1.3,0.5s-0.9,0.3-1.3,0.4c-0.4,0.1-0.9,0.2-1.4,0.3
							C105.5,87.1,105,87.1,104.6,87.1z"/>
						<path class="st1" d="M107.2,48.8l0.3-1.5l0.2-0.7l0.1-0.7l0.3-1.4c0.1-0.2,0.1-0.5,0.1-0.7l0.1-0.7l0.1-0.7
							c0-0.2,0.1-0.5,0.1-0.7c0.1-0.5,0.1-0.9,0.2-1.4c0-0.2,0.1-0.5,0.1-0.7c0-0.2,0.1-0.5,0.1-0.7c0.1-0.5,0.1-0.9,0.1-1.4
							c0-0.5,0.1-0.9,0.1-1.4c0-0.5,0-0.9,0.1-1.4c0-0.5,0-0.9,0-1.4c0-0.2,0-0.4,0-0.7l0-0.7c0-0.2,0-0.5,0-0.7
							c0-0.2,0-0.5-0.1-0.7c-0.1-0.4-0.1-0.9-0.1-1.3c0-0.4-0.1-0.9-0.2-1.3c-0.1-0.4-0.2-0.9-0.2-1.3l1.6,1.5l-0.7-0.1l-0.7-0.1
							c-0.2,0-0.5-0.1-0.7-0.1c-0.2,0-0.5-0.1-0.7-0.1c-0.2,0-0.5-0.1-0.8-0.1c-0.2,0-0.5-0.1-0.8-0.1l-1.5-0.3l-0.7-0.1
							c-0.2,0-0.5-0.1-0.8-0.1l-0.8-0.1c-0.2,0-0.5-0.1-0.8-0.1c-0.2,0-0.5-0.1-0.8-0.1c-0.2,0-0.5-0.1-0.8-0.1l-0.4,0
							c-0.1,0-0.3,0-0.4,0c-0.3,0-0.5,0-0.8-0.1c0.2-0.1,0.5-0.3,0.7-0.4c0.2-0.1,0.5-0.2,0.8-0.3c0.2-0.1,0.5-0.2,0.8-0.3
							c0.3-0.1,0.5-0.2,0.8-0.2c0.3-0.1,0.5-0.1,0.8-0.2c0.3-0.1,0.5-0.1,0.8-0.2c0.3,0,0.5-0.1,0.8-0.1c0.3,0,0.5-0.1,0.8-0.1
							l0.8-0.1l0.8-0.1c0.3,0,0.5,0,0.8,0c0.3,0,0.5,0,0.8,0c0.5,0,1.1,0,1.6,0c0.3,0,0.5,0,0.8,0c0.3,0,0.5,0,0.8,0l1.2,0.1
							l0.4,1.4c0.1,0.2,0.1,0.5,0.2,0.7c0.1,0.3,0.1,0.5,0.2,0.8l0.2,0.8c0.1,0.3,0.1,0.5,0.1,0.8c0.1,0.5,0.2,1,0.2,1.6
							c0,0.3,0,0.5,0.1,0.8c0,0.3,0,0.5,0.1,0.8l0,0.8c0,0.3,0,0.5,0,0.8c0,0.3,0,0.5,0,0.8c0,0.2,0,0.5-0.1,0.8
							c-0.1,0.5-0.1,1-0.2,1.5c-0.1,0.5-0.2,1-0.3,1.5l-0.2,0.8c-0.1,0.2-0.1,0.5-0.2,0.7c-0.1,0.5-0.3,1-0.5,1.5
							c-0.2,0.5-0.4,1-0.6,1.4c-0.1,0.2-0.2,0.5-0.3,0.7l-0.4,0.7c-0.2,0.4-0.5,0.9-0.8,1.3l-0.4,0.6c-0.1,0.2-0.3,0.4-0.4,0.6
							c-0.1,0.2-0.3,0.4-0.5,0.6c-0.1,0.2-0.3,0.4-0.5,0.6C108,48,107.6,48.4,107.2,48.8z"/>
						<g>
							<path class="st1" d="M47.3,95.6c-0.3,0-0.6,0.1-0.9,0.2c-3,0.5-6.1,0.5-9.2,0.2c-1.5-0.2-3.1-0.4-4.6-0.8
								c-1.5-0.3-3-0.8-4.4-1.3c-1.4-0.5-2.9-1.1-4.3-1.8c-0.7-0.4-1.4-0.7-2.1-1.1c-0.3-0.2-0.7-0.4-1-0.6c0,0,0,0-0.1,0
								c0,0,0,0,0,0c0.3-0.3,0.6-0.6,0.8-0.9c0.3-0.3,0.6-0.6,0.9-0.9c0.3-0.3,0.6-0.5,0.9-0.8c0.3-0.3,0.6-0.5,0.9-0.8
								c0.3-0.3,0.7-0.5,1-0.8c0.3-0.2,0.7-0.5,1-0.8c0.3-0.2,0.7-0.5,1-0.7c0.4-0.2,0.7-0.5,1-0.7c0.3-0.2,0.7-0.4,1.1-0.7
								c0.4-0.2,0.7-0.4,1.1-0.6c0.4-0.2,0.7-0.4,1.1-0.6c0.7-0.4,1.5-0.8,2.2-1.2c0.8-0.4,1.5-0.7,2.3-1c-0.8,0.2-1.6,0.4-2.4,0.7
								c-0.8,0.3-1.6,0.6-2.4,0.9c-0.8,0.3-1.6,0.7-2.3,1c-0.4,0.2-0.8,0.4-1.1,0.6c-0.4,0.2-0.8,0.4-1.1,0.6s-0.8,0.4-1.1,0.6
								c-0.4,0.2-0.7,0.4-1.1,0.7c-0.3,0.2-0.7,0.5-1.1,0.7c-0.4,0.2-0.7,0.5-1.1,0.8c-0.3,0.2-0.7,0.5-1,0.8
								c-0.3,0.3-0.7,0.5-1,0.8c-0.3,0.3-0.7,0.6-1,0.9c-0.3,0.3-0.6,0.6-0.9,0.9l-0.8,0.7l0.9,0.7c0.2,0.2,0.3,0.3,0.5,0.4
								c0.2,0.1,0.3,0.3,0.5,0.4c0.3,0.2,0.7,0.5,1,0.7c0.7,0.5,1.4,0.9,2.1,1.3c1.4,0.8,2.9,1.6,4.4,2.2c1.5,0.6,3.1,1.2,4.7,1.7
								c0.8,0.2,1.6,0.4,2.4,0.6c0.8,0.2,1.6,0.3,2.5,0.5c3.3,0.5,6.7,0.6,10,0.2c1.8-0.2,3.6-0.5,5.4-1
								C50.1,97.9,48.5,96.9,47.3,95.6z"/>
						</g>
					</g>
				</g>
			</g>
			<g>
				<path class="st1" d="M112.3,91.2c-0.3-0.3-0.6-0.6-0.9-0.9c-0.3-0.3-0.6-0.6-1-0.9c-0.3-0.3-0.7-0.5-1-0.8
					c-0.3-0.3-0.7-0.5-1-0.8c-0.4-0.2-0.7-0.5-1.1-0.7c-0.4-0.2-0.7-0.5-1.1-0.7c-0.4-0.2-0.7-0.5-1.1-0.7s-0.7-0.4-1.1-0.6
					c-0.4-0.2-0.8-0.4-1.1-0.6c-0.4-0.2-0.8-0.4-1.1-0.6c-0.8-0.4-1.5-0.7-2.3-1c-0.8-0.3-1.6-0.6-2.4-0.9c-0.8-0.3-1.6-0.5-2.4-0.7
					c0.8,0.3,1.5,0.6,2.3,1c0.8,0.4,1.5,0.7,2.2,1.1c0.4,0.2,0.7,0.4,1.1,0.6c0.4,0.2,0.7,0.4,1.1,0.6c0.4,0.2,0.7,0.4,1.1,0.7
					c0.4,0.2,0.7,0.5,1,0.7c0.3,0.2,0.7,0.5,1,0.7c0.3,0.2,0.7,0.5,1,0.8c0.3,0.2,0.6,0.5,1,0.8c0.3,0.3,0.6,0.5,0.9,0.8
					c0.3,0.3,0.6,0.5,0.9,0.8c0.3,0.3,0.6,0.6,0.9,0.9c0.3,0.3,0.6,0.6,0.9,0.9c0,0,0,0,0,0c0,0,0,0-0.1,0c-0.3,0.2-0.7,0.4-1,0.6
					c-0.7,0.4-1.4,0.8-2.1,1.1c-1.4,0.7-2.8,1.3-4.3,1.8c-1.4,0.5-2.9,1-4.4,1.3c-1.5,0.3-3,0.6-4.5,0.8c-3.1,0.3-6.1,0.3-9.1-0.2
					c-3-0.4-6-1.3-8.8-2.5c-2.8-1.1-5.5-2.6-8.1-4.3l-0.4-0.3c-0.9,1.1-2,2.1-3.2,2.7l0.3,0.2l0.5,0.4l0.2,0.2l0.1,0.1l0,0
					c-0.1-0.1,0.2,0.1,0.1,0.1l0.1,0c2.8,1.8,5.8,3.3,8.9,4.5c3.1,1.2,6.4,2,9.8,2.4c3.3,0.4,6.7,0.3,10-0.2
					c0.8-0.1,1.6-0.3,2.4-0.5c0.8-0.2,1.6-0.4,2.4-0.6c1.6-0.5,3.2-1,4.7-1.7c1.5-0.6,3-1.4,4.4-2.2c0.7-0.4,1.4-0.9,2.1-1.3
					c0.3-0.2,0.7-0.5,1-0.7c0.2-0.1,0.4-0.2,0.5-0.4c0.2-0.1,0.3-0.3,0.5-0.4l0.9-0.7L112.3,91.2z"/>
			</g>
		</g>
	</g>
	<g>
		<rect x="149.4" y="48.7" width="5.3" height="5.1"/>
		<rect x="158.5" y="48.7" width="5.3" height="5.1"/>
		<rect x="237" y="41" width="5.3" height="5.1"/>
		<path d="M339.9,26.1c0,1.6-0.1,2.7-0.4,3.3c-0.5,1-1.6,1.5-3.4,1.5h-3.3h-1.2h-8.2h-1.1H314h-1.2h-4.2
			c-0.1-10.4-4.3-15.6-12.4-15.6c-5.1,0-9.7,2.5-14.1,7.9l0.7-16.5h-5.3v24.3H269h-0.9h-8.6h-1.1h-8.1h-1.4h-7.8
			c0.8-0.9,1.1-2.6,1.1-5.3V15.3H237v10.5c0,1.6-0.2,2.8-0.6,3.5c-0.6,1-1.6,1.5-3.2,1.5h-3.8h-1.1h-8.3h-1.1h-8.4h-1.1h-8.4h-1.1
			h-8.4h-1.1h-8.2h-1.3h-0.7c-2.7,0-4.6-1.3-6.6-4.8c-2.1-3.6-5.3-5.4-9.5-5.4h-2.1v4.7c0.3,0,0.6,0,0.9,0c3.1,0,4.8,2,4.8,4.8
			c0,4.7-4.7,8.6-10.9,8.6c-6.9,0-11.3-4.4-11.3-11.5v-4.5h-5.4v5.1c0,9,7.3,15.9,16.5,15.9c7.8,0,14.2-4.5,15.8-11.6
			c2,2.9,3.6,3.9,8.4,4v0h9.5h1.1h8.4h1.1h8.4h1.1h8.4h1.1h8.3h1.1h19.6h1.4h8.1h1.1h8.6h0.9h43.7h1.2h8.3h1.1h8.2h1.2h4.4
			c5.4,0,8.1-2.7,8.1-8.3V6.6h-5.4L339.9,26.1L339.9,26.1z M303,30.9h-21.4c3.1-6.4,8.7-11,14.1-11c4.6,0,7.4,3.7,7.4,9.6
			C303.1,29.9,303.1,30.4,303,30.9z"/>
		<rect x="350.7" y="6.6" width="5.3" height="29.5"/>
		<path d="M409.3,26.1c0,1.6-0.1,2.7-0.4,3.3c-0.5,1-1.6,1.5-3.4,1.5h-3.7H401h-8.1h-1.7h-1.5c-2,0-3.4-0.3-4.1-0.8
			c-1-0.7-1.5-2.1-1.5-4.4V6.6h-5.3v21.2c0,2.5,0.6,4.5,1.9,6c1.4,1.6,3.4,2.4,5.9,2.4h4.6h1.7h8.1h0.8h4.9c5.3,0,8-2.7,8-8.3V15.3
			h-5.4L409.3,26.1L409.3,26.1z"/>
		<rect x="409.2" y="41" width="5.3" height="5.1"/>
		<rect x="400.2" y="41" width="5.3" height="5.1"/>
		<path d="M429.9,15.3c-6,0-10.3,4.2-10.3,10.4c0,6.1,4.1,10.4,10.3,10.4c2.5,0,4.2-0.8,5.1-2.3c-0.1,3.6-1.8,5.7-5.1,5.8v4.1
			c7,0,10.4-2.8,10.4-8.2v-9.6C440.3,19.8,436.3,15.3,429.9,15.3z M429.9,31.5c-2.9,0-4.9-2.6-4.9-5.8c0-3.1,1.9-5.7,4.7-5.7
			c3.1,0,5.1,2.4,5.1,5.9C434.8,28.9,432.8,31.5,429.9,31.5z"/>
		<path d="M451,32.8c0,4.4-2.2,6.5-6.7,6.5v4.4c8.2,0,12-3.4,12-11.7V15.3H451L451,32.8L451,32.8z"/>
		<rect x="484.4" y="6.1" width="5.3" height="5.1"/>
		<path d="M549.8,17.8c-2.6-1.7-5.7-2.5-9.2-2.5h-2.3l6.5-8.7h-6.4l-9.4,13.5H540c3.5,0,6.3,1.1,8.3,3.5c1.7,2,2.6,4.4,2.6,7.3
			h-25.1h-1.2h-8.3h-1.1h-8.4h-1.1h-7.7h-1.8h-6.5V15.3h-5.4v17.5c0,4.4-2.2,6.5-6.7,6.5v4.4c6.5,0,10.9-2.7,11.7-7.6h6.8h1.8h7.7
			h1.1h8.4h1.1h8.3h1.2h30.9v-3.2C556.6,25.7,554.4,20.7,549.8,17.8z"/>
		<path d="M624.8,18.9c-6.4,0-10.8,4.4-10.8,10.5c0,0.4,0,0.8,0.1,1.2l0,0.2h-5.4h-1.2h-8.3h-1.1h-8.4h-1.1h-7.7h-1.8h-6.5V15.3
			h-5.4v17.5c0,4.4-2.2,6.5-6.7,6.5v4.4c6.5,0,10.9-2.7,11.7-7.6h6.8h1.8h7.7h1.1h8.4h1.1h8.3h1.2h7.4c2.1,2.7,5,4.1,8.7,4.1
			c6.4,0,10.7-4.5,10.7-10.5C635.6,23.6,631.2,18.9,624.8,18.9z M625,35.4c-3.2,0-5.5-2.6-5.5-6c0-3.4,2.2-5.9,5.2-5.9
			c3.2,0,5.4,2.6,5.4,6.1C630.1,33.1,628,35.4,625,35.4z"/>
	</g>
</g>
</svg>
