<?xml version="1.0" encoding="utf-8"?>
<!-- Generator: Adobe Illustrator 27.3.1, SVG Export Plug-In . SVG Version: 6.00 Build 0)  -->
<svg version="1.1" id="Layer_1" xmlns="http://www.w3.org/2000/svg" xmlns:xlink="http://www.w3.org/1999/xlink" x="0px" y="0px"
	 viewBox="0 0 841.89 595.28" style="enable-background:new 0 0 841.89 595.28;" xml:space="preserve">
<style type="text/css">
	.st0{fill-rule:evenodd;clip-rule:evenodd;fill:#DAA900;}
	.st1{fill:#DAA900;}
</style>
<g>
	<g>
		<path d="M246.96,328.05v14.34h-4.89v-32.06h7.28c2.13,0,3.78,0.14,4.97,0.42c1.17,0.28,2.17,0.74,3,1.38
			c0.99,0.77,1.76,1.77,2.3,3c0.54,1.23,0.81,2.57,0.81,4.03c0,2.58-0.63,4.58-1.86,6.04c-1.24,1.45-3.07,2.32-5.49,2.62
			l11.03,14.58h-5.89l-10.67-14.34H246.96z M247.28,324h0.93c2.77,0,4.59-0.32,5.5-0.96c0.9-0.64,1.35-1.78,1.35-3.42
			c0-1.77-0.48-3.02-1.46-3.74c-0.96-0.72-2.76-1.09-5.4-1.09h-0.93V324z"/>
		<path d="M300.03,326.43c0,2.28-0.41,4.43-1.27,6.45c-0.85,2.03-2.1,3.85-3.74,5.44c-1.64,1.6-3.51,2.81-5.58,3.65
			c-2.08,0.85-4.25,1.27-6.53,1.27c-2.31,0-4.5-0.43-6.6-1.29c-2.1-0.86-3.94-2.07-5.54-3.64c-1.64-1.59-2.87-3.4-3.74-5.42
			c-0.84-2.01-1.26-4.17-1.26-6.48c0-2.3,0.42-4.45,1.26-6.48c0.86-2.02,2.1-3.85,3.74-5.44c1.63-1.59,3.48-2.81,5.56-3.64
			c2.07-0.83,4.27-1.25,6.59-1.25c2.3,0,4.49,0.42,6.56,1.25c2.06,0.83,3.91,2.05,5.55,3.64c1.63,1.62,2.88,3.45,3.74,5.47
			C299.62,322.01,300.03,324.16,300.03,326.43z M294.62,326.43c0-1.62-0.3-3.17-0.89-4.62c-0.59-1.46-1.44-2.75-2.54-3.9
			c-1.09-1.12-2.33-1.99-3.75-2.58c-1.43-0.61-2.93-0.92-4.51-0.92c-1.58,0-3.07,0.3-4.5,0.91c-1.43,0.59-2.68,1.46-3.79,2.59
			c-1.12,1.13-1.96,2.43-2.54,3.88c-0.58,1.46-0.88,3.02-0.88,4.65c0,1.62,0.3,3.16,0.88,4.6c0.58,1.45,1.42,2.72,2.54,3.87
			c1.11,1.14,2.37,2.01,3.78,2.61c1.42,0.6,2.91,0.9,4.51,0.9c1.56,0,3.05-0.3,4.45-0.9c1.41-0.6,2.68-1.47,3.81-2.61
			c1.11-1.15,1.95-2.42,2.54-3.89C294.32,329.56,294.62,328.03,294.62,326.43z"/>
		<path d="M311.33,342.39v-14.66l-10.8-17.39H306l6.73,10.88c0.16,0.28,0.36,0.65,0.6,1.1c0.24,0.46,0.49,0.93,0.74,1.47
			c0.21-0.52,0.42-1,0.65-1.45c0.23-0.45,0.45-0.87,0.71-1.25l6.89-10.75h5.21l-11.03,17.39v14.66H311.33z"/>
		<path d="M349.73,342.39l-3.63-8.25h-12.7l-3.73,8.25h-5.47l15.52-33.33l15.5,33.33H349.73z M335.31,329.8h8.94l-3.28-7.32
			c-0.18-0.46-0.37-1.01-0.59-1.6c-0.2-0.62-0.41-1.29-0.61-2.03c-0.17,0.7-0.36,1.36-0.56,1.97c-0.2,0.6-0.41,1.16-0.61,1.67
			L335.31,329.8z"/>
		<path d="M397.92,326.56c-0.06-0.25-0.15-0.93-0.28-2.06c-0.12-0.93-0.22-1.7-0.31-2.32c-0.14,0.73-0.32,1.46-0.56,2.18
			c-0.23,0.73-0.54,1.48-0.9,2.24l-8.39,17.08l-8.39-17.44c-0.35-0.71-0.65-1.42-0.91-2.08c-0.25-0.67-0.47-1.34-0.67-1.99
			c-0.01,0.67-0.07,1.37-0.16,2.12c-0.09,0.73-0.23,1.5-0.43,2.3l-3.44,15.78h-4.8l7.58-33.41l9.46,20.24
			c0.13,0.32,0.36,0.84,0.66,1.59c0.31,0.75,0.66,1.67,1.09,2.76c0.31-0.92,0.79-2.09,1.44-3.51c0.18-0.38,0.31-0.66,0.4-0.87
			l9.24-20.21l7.76,33.41h-4.84L397.92,326.56z"/>
		<path d="M410.46,342.39v-32.06h17.89v4.42h-12.67v8.04h12.67v4.57h-12.67v10.35h12.67v4.67H410.46z"/>
		<path d="M434.33,342.39v-32.06h7.04c4.57,0,7.78,0.23,9.64,0.7c1.85,0.46,3.49,1.23,4.9,2.3c1.85,1.42,3.25,3.24,4.21,5.44
			c0.95,2.23,1.43,4.76,1.43,7.61c0,2.84-0.48,5.37-1.43,7.57c-0.96,2.2-2.36,4.01-4.21,5.44c-1.4,1.07-3.01,1.85-4.79,2.3
			c-1.78,0.46-4.57,0.69-8.35,0.69h-1.4H434.33z M439.55,337.68h4.38c2.41,0,4.22-0.15,5.42-0.48c1.21-0.32,2.26-0.86,3.15-1.62
			c1.21-1.04,2.11-2.33,2.72-3.87c0.61-1.53,0.92-3.33,0.92-5.38c0-2.03-0.31-3.83-0.92-5.37c-0.6-1.54-1.51-2.83-2.72-3.86
			c-0.9-0.77-2-1.31-3.25-1.63c-1.27-0.32-3.24-0.48-5.92-0.48h-1.88h-1.88V337.68z"/>
		<path d="M467.62,342.39v-32.06h5.21v32.06H467.62z"/>
		<path d="M506.03,318.12c-1.46-1.26-3.03-2.19-4.66-2.81c-1.65-0.64-3.37-0.95-5.18-0.95c-3.51,0-6.36,1.12-8.55,3.36
			c-2.19,2.26-3.29,5.17-3.29,8.74c0,3.45,1.07,6.31,3.2,8.56c2.14,2.25,4.85,3.37,8.1,3.37c1.89,0,3.7-0.33,5.41-1.01
			c1.71-0.67,3.35-1.68,4.94-3.04v5.89c-1.4,1-2.92,1.75-4.57,2.25c-1.66,0.5-3.45,0.75-5.37,0.75c-2.46,0-4.71-0.41-6.79-1.21
			c-2.08-0.8-3.91-1.99-5.49-3.54c-1.57-1.53-2.76-3.34-3.59-5.42c-0.85-2.08-1.27-4.3-1.27-6.65c0-2.35,0.42-4.56,1.27-6.62
			c0.83-2.08,2.05-3.89,3.64-5.44c1.59-1.58,3.42-2.77,5.47-3.58c2.06-0.81,4.29-1.22,6.69-1.22c1.88,0,3.66,0.28,5.38,0.84
			c1.7,0.53,3.37,1.36,4.97,2.47L506.03,318.12z"/>
		<path d="M533.67,342.39l-3.64-8.25h-12.69l-3.72,8.25h-5.48l15.53-33.33l15.49,33.33H533.67z M519.27,329.8h8.94l-3.28-7.32
			c-0.2-0.46-0.4-1.01-0.6-1.6c-0.2-0.62-0.4-1.29-0.61-2.03c-0.17,0.7-0.35,1.36-0.56,1.97c-0.2,0.6-0.4,1.16-0.6,1.67
			L519.27,329.8z"/>
		<path d="M542.19,342.39v-32.06h5.21v27.39h11.65v4.67H542.19z"/>
		<path d="M602.54,318.12c-1.48-1.26-3.03-2.19-4.67-2.81c-1.65-0.64-3.37-0.95-5.18-0.95c-3.51,0-6.35,1.12-8.55,3.36
			c-2.2,2.26-3.3,5.17-3.3,8.74c0,3.45,1.08,6.31,3.21,8.56c2.15,2.25,4.84,3.37,8.09,3.37c1.89,0,3.71-0.33,5.41-1.01
			c1.73-0.67,3.37-1.68,4.94-3.04v5.89c-1.4,1-2.94,1.75-4.58,2.25c-1.65,0.5-3.44,0.75-5.37,0.75c-2.45,0-4.71-0.41-6.8-1.21
			c-2.08-0.8-3.91-1.99-5.48-3.54c-1.57-1.53-2.77-3.34-3.6-5.42c-0.85-2.08-1.26-4.3-1.26-6.65c0-2.35,0.41-4.56,1.26-6.62
			c0.83-2.08,2.05-3.89,3.64-5.44c1.6-1.58,3.42-2.77,5.48-3.58c2.05-0.81,4.28-1.22,6.68-1.22c1.88,0,3.67,0.28,5.38,0.84
			c1.71,0.53,3.36,1.36,4.97,2.47L602.54,318.12z"/>
		<path d="M608.99,342.39v-32.06h17.89v4.42H614.2v8.04h12.68v4.57H614.2v10.35h12.68v4.67H608.99z"/>
		<path d="M632.86,342.39v-33.33l20.37,19.6c0.55,0.55,1.11,1.14,1.68,1.77c0.57,0.62,1.17,1.34,1.8,2.12v-22.23h4.81v33.31
			l-20.78-19.95c-0.55-0.55-1.09-1.12-1.61-1.71c-0.51-0.59-1-1.22-1.48-1.88v22.29H632.86z"/>
		<path d="M679.24,314.75v27.63h-5.22v-27.63h-8.52v-4.42h22.21v4.42H679.24z"/>
		<path d="M691.7,342.39v-32.06h17.89v4.42h-12.68v8.04h12.68v4.57h-12.68v10.35h12.68v4.67H691.7z"/>
		<path d="M720.44,328.05v14.34h-4.88v-32.06h7.27c2.13,0,3.79,0.14,4.97,0.42c1.18,0.28,2.18,0.74,3.02,1.38
			c0.99,0.77,1.75,1.77,2.28,3c0.55,1.23,0.82,2.57,0.82,4.03c0,2.58-0.62,4.58-1.86,6.04c-1.25,1.45-3.08,2.32-5.51,2.62
			l11.04,14.58h-5.89l-10.66-14.34H720.44z M720.78,324h0.93c2.76,0,4.59-0.32,5.49-0.96c0.9-0.64,1.36-1.78,1.36-3.42
			c0-1.77-0.48-3.02-1.45-3.74c-0.97-0.72-2.78-1.09-5.41-1.09h-0.93V324z"/>
	</g>
	<g>
		<g>
			<g>
				<g>
					<path class="st0" d="M179.33,324.85c0.63,0.85,1.16,1.71,1.83,2.45c1.61,1.79,3.29,3.51,4.95,5.27
						c0.52,0.55,1.03,1.12,1.63,1.76c-0.9,0.12-1.33,0.73-1.79,1.27c-0.39,0.45-0.91,0.59-1.47,0.71c-0.34,0.06-0.65,0.23-0.95,0.41
						c1.3,0.38,2.45,0.23,3.39-0.81c0.47-0.51,1.04-0.89,1.79-0.84c0.33,0.02,0.34-0.2,0.26-0.41c-0.17-0.37-0.34-0.77-0.58-1.1
						c-1.11-1.47-2.26-2.91-3.36-4.38c-1.3-1.71-2.63-3.43-3.87-5.19c-0.63-0.91-0.65-0.71,0.24-1.43c0.83-0.7,1.77-1.28,2.64-1.91
						c0.25-0.19,0.4-0.14,0.6,0.07c1.44,1.53,2.77,3.14,3.92,4.89c1.38,2.1,2.66,4.27,3.48,6.64c0.32,0.92,0.55,1.85,0.54,2.82
						c-0.02,1.58-0.96,2.61-2.56,2.65c-0.89,0.03-1.71,0.29-2.4,0.83c-0.75,0.58-1.5,0.69-2.38,0.42c-0.34-0.1-0.71-0.15-1.09-0.15
						c0.74,0.33,1.46,0.68,2.2,1c0.17,0.07,0.42,0.04,0.61-0.01c0.34-0.09,0.67-0.21,0.96-0.38c0.8-0.44,1.63-0.73,2.55-0.83
						c1.8-0.22,2.89-1.42,3.14-3.23c0.26-1.97-0.18-3.84-0.81-5.69c-0.13-0.39-0.29-0.79-0.44-1.21c0.34-0.16,0.69-0.29,0.97-0.49
						c0.29-0.2,0.52-0.47,0.86-0.78c-0.62,0.31-1.12,0.57-1.62,0.81c-0.25,0.12-0.41,0.06-0.54-0.22c-0.25-0.6-0.57-1.17-0.84-1.82
						c2.02,1.15,3.84,0.79,5.49-0.7c-0.64,0.18-1.28,0.33-1.92,0.52c-0.71,0.21-1.4,0.14-2.08-0.12c-0.74-0.3-1.46-0.63-2.18-0.96
						c-0.16-0.07-0.3-0.22-0.41-0.39c-0.74-1.04-1.52-2.03-2.51-2.85c-0.89-0.73-1.84-1.31-3.11-1.07c0.54-0.39,1.08-0.79,1.65-1.2
						c0.73,0.93,1.55,1.73,2.56,2.29c1.37,0.77,2.78,1.48,4.17,2.22c0.03-0.03,0.06-0.08,0.09-0.11c-0.37-0.33-0.71-0.74-1.13-1.01
						c-1.04-0.65-2.12-1.22-3.18-1.84c-0.7-0.41-1.38-0.84-2.06-1.26c-0.13-0.08-0.23-0.19-0.38-0.31c0.52-0.55,1.02-1.08,1.51-1.6
						c1.91,1.15,3.83,2.3,5.75,3.46c-1.53-1.75-3.4-3-5.61-3.64c0-0.07,0-0.11,0.01-0.13c0.63-0.88,0.48-1.8,0.19-2.74
						c-0.45-1.49-0.89-2.99-1.32-4.48c-0.06-0.16-0.08-0.32-0.14-0.51c-0.14,0.87-0.04,1.62,0.42,2.98c0.3,0.91,0.61,1.81,0.9,2.72
						c0.13,0.41,0.07,0.82-0.13,1.21c-0.6,1.25-1.61,2.12-2.72,2.87c-0.7,0.48-1.43,0.93-2.16,1.35c-1.69,0.98-3.11,2.26-4.35,3.78
						c-3.87,4.74-8.32,8.92-13.22,12.61c-2.07,1.55-4.18,3.02-6.55,4.06c-1.12,0.5-2.27,0.9-3.5,1.03
						c-1.65,0.17-2.97-0.41-3.95-1.77c-1.17-1.63-1.96-3.46-2.63-5.33c-1.13-3.21-1.95-6.52-2.59-9.87
						c-0.55-2.92-1.03-5.84-1.49-8.78c-0.27-1.71-0.42-3.44-0.62-5.16c-0.17-1.48-0.33-2.93-0.47-4.4c-0.12-1.23-0.2-2.45-0.27-3.66
						c-0.09-1.42-0.17-2.81-0.21-4.22c-0.05-1.56,0.21-3.08,0.76-4.53c1.12-2.89,2.33-5.74,3.48-8.61c0.03-0.08,0.07-0.16,0.07-0.24
						c-0.49,0.8-1.03,1.57-1.47,2.4c-0.89,1.65-1.78,3.32-2.59,5.01c-0.87,1.86-1.21,3.85-1.43,5.89c-0.34,3.19-0.36,6.39-0.3,9.59
						c0.05,1.83,0.19,3.67,0.32,5.51c0.11,1.55,0.22,3.11,0.45,4.65c0.37,2.61,0.76,5.22,1.25,7.81c0.62,3.25,1.45,6.45,2.65,9.55
						c0.83,2.14,1.79,4.23,3.28,6.01c0.4,0.47,0.79,0.94,1.2,1.39c1.29,1.37,2.89,1.59,4.62,1.22c2.08-0.46,3.86-1.56,5.59-2.74
						c5.18-3.53,10.03-7.47,14.25-12.13c1.3-1.42,2.51-2.91,3.77-4.36C179.07,325.18,179.2,325.02,179.33,324.85z"/>
					<path class="st0" d="M181.21,294.51c0.1-0.17,0.25-0.35,0.25-0.53c0.02-0.92,0.1-1.85-0.03-2.74
						c-0.25-1.81-1.01-3.36-2.67-4.31c-1.45-0.83-3.05-0.91-4.66-0.65c-2.17,0.37-3.82,1.6-5.11,3.33c-0.9,1.23-1.56,2.53-1.46,4.08
						c0.05,0.74,0.23,1.48,0.35,2.18c-0.19-0.3-0.42-0.62-0.64-0.95c-0.34-0.55-0.58-1.15-0.6-1.83c-0.09-2.04,0.6-3.81,1.83-5.41
						c0.2-0.26,0.41-0.52,0.65-0.81c-0.22,0.01-0.36,0.05-0.49,0.03c-0.45-0.02-0.73,0.18-0.93,0.58c-0.19,0.37-0.41,0.72-0.65,1.07
						c-0.49,0.72-1.07,0.94-1.91,0.7c-0.39-0.12-0.79-0.29-1.13-0.52c-1.68-1.11-2.85-2.68-3.81-4.42c-0.27-0.48-0.47-1-0.7-1.48
						c0.02-0.02,0.05-0.03,0.09-0.05c0.08,0.15,0.17,0.31,0.26,0.46c0.71,1.23,1.55,2.38,2.55,3.39c0.82,0.82,1.67,1.56,2.86,1.79
						c0.56,0.13,1.02,0,1.34-0.51c0.17-0.28,0.37-0.56,0.5-0.88c0.18-0.39,0.41-0.63,0.92-0.58c0.46,0.05,0.67-0.2,0.64-0.65
						c-0.02-0.34-0.1-0.68-0.16-1.07c0.14,0.1,0.24,0.17,0.34,0.23c0.68,0.43,1.37,0.57,2.13,0.22c0.17-0.08,0.35-0.13,0.51-0.21
						c0.46-0.22,0.9-0.46,1.39-0.72c-0.95-0.64-1.37-0.54-1.77,0.31c0-0.13-0.02-0.23,0-0.34c0.1-0.69,0.41-0.87,1.07-0.67
						c0.26,0.09,0.49,0.2,0.75,0.27c0.86,0.25,1.3-0.09,1.35-0.98c0.06-1.08,0.12-2.16,0.26-3.24c0.1-0.87,0.32-1.71,1.14-2.22
						c1.28-0.79,2.14-1.97,2.88-3.25c0.51-0.92,1.06-1.82,1.59-2.74c-0.47,1.66-1,3.29-1.89,4.76c-0.37,0.6-0.82,1.11-1.44,1.47
						c-0.31,0.18-0.58,0.41-0.93,0.65c0.39,0.35,0.72,0.63,1.06,0.93c-0.41-0.06-0.8-0.11-1.17-0.2c-0.25-0.05-0.32,0.02-0.4,0.23
						c-0.5,1.45-0.48,2.93-0.3,4.47c0.74,0,1.46-0.1,2.15,0.01c3.15,0.53,6.3,3.05,5.94,7.39c-0.09,1.04-0.31,2.06-0.48,3.12
						c0.05,0.03,0.24,0.1,0.27,0.2c0.11,0.39,0.41,0.44,0.72,0.45c0.89,0.03,1.7,0.38,2.44,0.85c2.01,1.26,3.6,2.96,4.91,4.89
						c0.88,1.3,1.66,2.66,2.45,4.02c1.13,1.94,1.93,4.03,2.37,6.24c0.07,0.32,0.21,0.45,0.49,0.58c0.66,0.32,1.34,0.64,1.99,1.04
						c0.45,0.29,0.73,0.71,0.85,1.25c0.19,0.77,0.41,1.56,0.56,2.34c0.44,2.25,0.29,4.42-0.78,6.5c-0.12,0.23-0.26,0.44-0.41,0.71
						c0-0.63,0.04-1.21,0-1.77c-0.11-1.92-0.25-3.84-0.38-5.76c-0.08-1.16-0.41-2.21-1.45-2.9c-0.37-0.27-0.72-0.56-1.11-0.82
						c-1.22-0.78-1.56-0.74-2.63,0.26c-0.23,0.21-0.52,0.37-0.78,0.56c-0.02-0.04-0.04-0.07-0.06-0.1c0.54-0.82,0.94-1.79,2.23-1.83
						c-0.18-0.5-0.32-0.97-0.49-1.41c-1.33-3.3-3.19-6.26-5.41-9.04c-1.02-1.29-2.16-2.48-3.67-3.22c-1.6-0.79-3.26-0.63-4.37,1
						c-0.42,0.62-0.74,1.3-1.15,2.05c0.23-0.81,0.41-1.52,0.67-2.22c0.33-0.88,0.73-1.75,1.51-2.36c0.24-0.19,0.41-0.49,0.57-0.77
						c0.13-0.25-0.03-0.46-0.31-0.38c-0.3,0.08-0.56,0.24-0.87,0.39C180.97,294.82,181.09,294.67,181.21,294.51z M169.94,286.13
						c-0.31-0.16-0.56-0.31-0.87-0.47c0.13,0.33,0.23,0.61,0.38,0.99C169.62,286.46,169.77,286.31,169.94,286.13z"/>
					<path class="st0" d="M156.3,283.94c-0.1-1.6,0.01-3.12,0.45-4.59c0.76-2.51,2.4-4.24,4.72-5.34c1.69-0.8,3.49-1.26,5.33-1.48
						c2.12-0.25,4.27-0.34,6.39-0.53c1.81-0.15,3.6-0.31,5.41-0.5c0.93-0.11,1.85-0.36,2.7-0.79c1.78-0.92,1.98-2.17,1.82-3.66
						c-0.04-0.4-0.17-0.79-0.28-1.18c-0.21,1.7-1.39,2.4-2.86,2.77c-1.41,0.37-2.86,0.44-4.31,0.43c-1.8-0.03-3.62-0.06-5.43-0.07
						c-2.16-0.04-4.31,0.03-6.46,0.31c-1.71,0.2-3.32,0.68-4.78,1.58c-2.11,1.31-3.21,3.25-3.49,5.69
						c-0.26,2.46,0.14,4.84,0.72,7.21C156.24,283.84,156.26,283.87,156.3,283.94z"/>
					<path class="st0" d="M162.68,314.32c1.06,3.87,2.98,6.77,7.45,7.23c-0.32,0.28-0.58,0.52-0.85,0.73
						c-1.63,1.3-3.5,2.22-5.32,3.21c-1.04,0.58-2.04,1.2-3.04,1.81c-0.4,0.23-0.79,0.5-1.25,0.8c0.02-0.29,0.04-0.49,0.07-0.71
						c0.37-2.44-0.03-4.84-0.46-7.24c-0.36-1.99-0.76-4-0.69-6.04c0.06-1.57,0.27-3.12,0.45-4.68c0.17-1.51,0.38-3.01,0.49-4.53
						c-0.41,1.38-0.89,2.75-1.21,4.15c-0.43,1.87-0.85,3.75-1.07,5.65c-0.14,1.2,0,2.45,0.1,3.66c0.09,1.22,0.27,2.44,0.43,3.65
						c0.28,1.95,0.41,3.91,0.25,5.88c-0.11,1.28-0.37,2.51-0.77,3.71c-0.04,0.15-0.06,0.33-0.1,0.54c0.29-0.48,0.51-0.93,0.8-1.33
						c0.54-0.81,1.3-1.39,2.07-1.97c1.75-1.3,3.72-2.18,5.65-3.14c1.29-0.62,2.56-1.3,3.79-2.03c2.1-1.25,3.5-3.16,4.64-5.27
						c1.1-1.99,2.12-4,3.2-6c0.37-0.67,0.83-1.31,1.21-1.99c0.76-1.37,2.03-2.2,3.23-3.12c0.4-0.32,0.81-0.62,1.22-0.95
						c-1.23,0.51-2.47,0.99-3.51,1.81c-0.35,0.28-0.67,0.32-1.07,0.17c-1.11-0.37-1.98-1.1-2.84-1.85
						c-1.62-1.43-3.24-2.87-4.87-4.27c-0.39-0.34-0.86-0.6-1.34-0.84c1.05,1,2.07,2.01,3.13,2.99c1.27,1.21,2.59,2.39,3.55,3.87
						c0.4,0.59,0.73,1.26,1.04,1.9c0.06,0.11,0.06,0.35-0.01,0.44c-1.41,1.84-2.38,3.92-3.47,5.95c-0.55,1-1.14,1.98-1.74,2.94
						c-0.1,0.15-0.33,0.3-0.49,0.29c-1.68-0.17-3.34-0.42-4.81-1.33c-1.49-0.92-2.54-2.24-3.51-3.66c-0.07-0.12-0.16-0.25-0.25-0.38
						C162.76,314.37,162.75,314.37,162.68,314.32z"/>
					<path class="st0" d="M148.08,269.12c0.72-1.27,1.37-2.58,2.16-3.81c1.86-2.84,3.89-5.53,6.64-7.62c2.31-1.75,4.9-2.84,7.8-3.07
						c2.91-0.21,5.63,0.5,8.21,1.79c2.17,1.08,4.12,2.53,5.94,4.12c0.04,0.05,0.09,0.07,0.21,0.18c-0.08-0.18-0.11-0.28-0.16-0.38
						c-1.74-3.68-4.38-6.45-8.16-8.04c-2.3-0.97-4.7-1.28-7.15-0.94c-3.61,0.52-6.63,2.19-9.14,4.81c-2.48,2.6-4.14,5.67-5.28,9.05
						c-0.43,1.27-0.77,2.57-1.15,3.87C148.04,269.09,148.06,269.11,148.08,269.12z"/>
					<path class="st0" d="M146.99,273.49c-0.85,2.65-2.14,5.09-3.81,7.29c-1.13,1.52-2.37,2.96-3.53,4.45
						c-1.08,1.39-2.12,2.8-2.69,4.49c-0.76,2.21-0.55,4.38,0.2,6.55c0.86,2.49,2.21,4.7,3.67,6.86c0.12,0.16,0.24,0.33,0.35,0.5
						c-0.35-1.14-0.71-2.27-1.03-3.41c-0.42-1.48-0.65-2.99-0.65-4.53c0.01-2.56,0.81-4.88,2.04-7.09c0.64-1.17,1.23-2.37,1.91-3.52
						c1.1-1.81,1.89-3.74,2.51-5.74C146.54,277.43,146.87,275.47,146.99,273.49z"/>
					<path class="st0" d="M149.25,281.37c0.24,3.42,0.99,6.68,3.16,9.45c1.35,1.73,3.06,3.03,4.99,4.06
						c1.9,1.02,3.85,1.93,5.77,2.93c1.42,0.74,2.71,1.63,3.77,2.85c1.41,1.62,2.04,3.54,2.23,5.63c0.09-2.56-0.42-4.96-2.01-7.06
						c-1.11-1.5-2.55-2.67-4.12-3.67c-1.96-1.26-3.96-2.45-5.9-3.7c-2.18-1.41-4.15-3.05-5.64-5.22
						C150.41,285.03,149.69,283.26,149.25,281.37z"/>
					<path class="st0" d="M166.6,259.97c-1.75,0.11-3.48,0.37-5.16,0.82c-2.37,0.6-4.6,1.52-6.53,3.04
						c-2.44,1.93-3.87,4.45-4.39,7.49c-0.59,3.31-0.12,6.56,0.7,9.78c0.14,0.53,0.29,1.05,0.48,1.57c-0.08-1.11-0.2-2.2-0.24-3.31
						c-0.04-1.43-0.03-2.85,0-4.26c0.03-1.38,0.31-2.73,0.71-4.05c1.07-3.47,3.39-5.88,6.43-7.69c2.44-1.45,5.05-2.44,7.74-3.29
						C166.43,260.04,166.51,260.01,166.6,259.97z"/>
					<path class="st0" d="M183.68,305.23c-0.49-0.86-1.21-1.51-2.1-1.89c-1.37-0.58-2.8-1.06-4.21-1.56
						c-0.31-0.11-0.63-0.23-0.95-0.31c-1.14-0.28-1.81-1.14-2.53-2.03c0.58-0.11,1.02-0.41,1.31-0.95c-0.25,0.1-0.47,0.2-0.69,0.27
						c-0.56,0.17-1.07,0.23-1.68-0.07c-0.8-0.39-1.7-0.34-2.55-0.05c-0.44,0.15-0.63,0.49-0.63,0.93c0,0.68,0.24,1.27,0.6,1.79
						c-0.03-0.4-0.08-0.83-0.05-1.24c0.04-0.58,0.35-0.78,0.92-0.73c0.83,0.07,1.56,0.37,2.2,0.92c1.19,1.03,2.46,1.9,4.01,2.3
						c0.59,0.15,1.17,0.31,1.77,0.47C180.75,303.54,182.39,304.01,183.68,305.23z"/>
					<path class="st0" d="M186.23,300.51c0.01,0.22,0.02,0.37,0.03,0.52c0.12,1.63,0.04,3.25-0.62,4.78
						c-0.09,0.21-0.3,0.36-0.49,0.49c-0.49,0.34-1.04,0.59-1.46,0.99c-0.54,0.49-0.99,1.08-1.42,1.69c0.31-0.29,0.63-0.56,0.95-0.84
						c0.44-0.4,0.84-0.87,1.33-1.21c0.38-0.24,0.85-0.38,1.3-0.44c0.49-0.09,1.11,0.47,0.91,1.09c-0.15,0.4-0.24,0.82-0.34,1.24
						c0.16-0.34,0.35-0.66,0.46-1.01c0.17-0.53,0.09-1.04-0.4-1.38c-0.2-0.15-0.18-0.28-0.09-0.48c0.82-1.78,0.6-3.55,0.01-5.32
						C186.38,300.59,186.33,300.58,186.23,300.51z"/>
					<path class="st0" d="M196.42,316.79c-1.98-2.53-4.37-4.19-7.74-3.63C191.77,313.23,194.15,314.9,196.42,316.79z"/>
					<path class="st0" d="M188.89,314.98c1.57,0.99,3.19,2.02,4.82,3.06C192.25,316.72,190.88,315.25,188.89,314.98z"/>
				</g>
				<g>
					<g>
						<path class="st1" d="M145.97,319.47c-0.97,0.14-1.96,0.21-2.95,0.26c-0.49,0.01-0.98,0.03-1.48,0.03
							c-0.49,0.01-0.99,0.01-1.49-0.01c-0.99-0.01-1.98-0.06-2.97-0.15c-0.98-0.08-1.97-0.2-2.95-0.33c-0.99-0.13-1.98-0.3-2.96-0.5
							c-0.98-0.2-1.96-0.43-2.93-0.69c-0.98-0.26-1.94-0.56-2.9-0.88c-0.95-0.33-1.89-0.7-2.84-1.11c-0.94-0.4-1.86-0.85-2.76-1.34
							c-0.91-0.49-1.8-1.01-2.66-1.59c-0.86-0.57-1.7-1.2-2.5-1.86c-0.81-0.68-1.57-1.39-2.31-2.14c-0.73-0.77-1.41-1.58-2.04-2.44
							c-0.64-0.83-1.21-1.73-1.73-2.66c-0.53-0.92-0.96-1.89-1.37-2.86c-0.41-0.98-0.71-2-0.99-3.02l-0.39-1.44l1.19-0.77
							c0.18-0.11,0.29-0.17,0.43-0.25c0.13-0.08,0.26-0.15,0.39-0.21c0.26-0.15,0.51-0.28,0.77-0.41c0.25-0.13,0.51-0.26,0.77-0.37
							c0.25-0.11,0.52-0.24,0.78-0.35c0.52-0.22,1.05-0.45,1.57-0.64c0.52-0.2,1.05-0.39,1.59-0.56l0.8-0.25
							c0.27-0.08,0.54-0.15,0.81-0.23c0.26-0.07,0.53-0.15,0.81-0.22c0.27-0.07,0.54-0.14,0.81-0.2c0.56-0.11,1.1-0.24,1.64-0.35
							l1.65-0.27c0.27-0.05,0.55-0.09,0.83-0.11c0.27-0.03,0.55-0.06,0.82-0.09l0.82-0.09c0.28-0.03,0.56-0.03,0.83-0.05
							c0.56-0.04,1.11-0.05,1.66-0.07c0.55-0.01,1.1,0.01,1.66,0.01c0.55,0.02,1.09,0.02,1.63,0.07c0.55,0.05,1.1,0.09,1.65,0.15
							c0.54,0.05,1.09,0.16,1.63,0.24c0.53,0.09,1.07,0.19,1.61,0.29c-0.55,0.07-1.09,0.14-1.62,0.19l-0.81,0.08
							c-0.15,0.03-0.27,0.03-0.4,0.04l-0.4,0.07c-0.53,0.09-1.06,0.15-1.59,0.22l-0.4,0.07c-0.13,0-0.26,0.03-0.39,0.06l-0.78,0.15
							c-0.51,0.12-1.05,0.19-1.57,0.3c-0.52,0.12-1.04,0.25-1.54,0.35c-0.26,0.07-0.51,0.11-0.77,0.19l-0.77,0.2
							c-0.26,0.07-0.5,0.13-0.76,0.21c-0.25,0.07-0.5,0.13-0.75,0.21l-1.5,0.48c-0.5,0.17-0.99,0.34-1.48,0.52
							c-0.49,0.16-0.97,0.37-1.45,0.56c-0.23,0.1-0.48,0.17-0.71,0.29l-0.71,0.32c-0.24,0.1-0.47,0.19-0.7,0.3
							c-0.23,0.11-0.47,0.23-0.7,0.33c-0.47,0.22-0.92,0.47-1.37,0.7c-0.23,0.11-0.45,0.24-0.67,0.36l-0.33,0.19l-0.32,0.2
							c-0.22,0.13-0.44,0.26-0.63,0.39c-0.1,0.05-0.22,0.12-0.31,0.19c-0.09,0.06-0.2,0.14-0.26,0.19l0.8-2.23
							c0.29,0.85,0.6,1.7,0.96,2.5c0.38,0.82,0.76,1.62,1.23,2.37c0.46,0.76,0.93,1.51,1.47,2.21c0.14,0.18,0.28,0.36,0.42,0.52
							l0.21,0.26l0.22,0.26c0.14,0.16,0.28,0.33,0.42,0.5l0.44,0.49c0.62,0.65,1.28,1.27,1.95,1.86c0.68,0.59,1.39,1.15,2.13,1.69
							c0.74,0.52,1.5,1.03,2.28,1.52c0.78,0.48,1.59,0.92,2.42,1.35c0.82,0.44,1.66,0.84,2.51,1.24c0.86,0.38,1.73,0.75,2.6,1.1
							c0.88,0.34,1.78,0.68,2.67,0.97c0.9,0.31,1.81,0.6,2.73,0.88c0.91,0.28,1.84,0.53,2.76,0.78c0.93,0.25,1.87,0.49,2.81,0.71
							l1.43,0.33l1.43,0.3C144.05,319.11,145,319.29,145.97,319.47z"/>
						<path class="st1" d="M138.24,292.27c-0.12-0.28-0.24-0.57-0.34-0.87c-0.15-0.37-0.28-0.75-0.42-1.14l-0.21-0.57l-0.2-0.57
							l-0.18-0.57l-0.18-0.58l-0.18-0.58c-0.06-0.19-0.1-0.39-0.16-0.57c-0.22-0.77-0.41-1.55-0.59-2.32l-0.26-1.16l-0.2-1.16
							c-0.13-0.78-0.26-1.55-0.34-2.33l-0.07-0.57c-0.02-0.2-0.03-0.39-0.04-0.59c-0.04-0.38-0.07-0.77-0.08-1.15l-0.03-1.15
							c-0.01-0.2,0-0.4,0-0.59l0.01-0.58c0-0.19,0-0.38,0.02-0.57l0.04-0.57l0.03-0.56c0.01-0.2,0.02-0.39,0.05-0.59l0.14-1.14
							c0.04-0.37,0.12-0.74,0.18-1.13l0.1-0.56l0.12-0.55c0.09-0.37,0.17-0.75,0.26-1.12l0.32-1.09c0.06-0.19,0.1-0.37,0.16-0.55
							l0.19-0.53c0.14-0.36,0.25-0.73,0.38-1.07l0.45-1.07c0.08-0.17,0.14-0.36,0.24-0.52l0.02-0.06c0.26,0.1,0.53,0.2,0.81,0.31
							c0.41,0.15,0.82,0.34,1.23,0.52c0.4,0.19,0.82,0.39,1.22,0.57l0.6,0.3l0.61,0.32c0.39,0.21,0.8,0.43,1.19,0.66
							c0.19,0.11,0.39,0.22,0.59,0.35c0.19,0.1,0.39,0.23,0.58,0.35c0.38,0.24,0.77,0.49,1.14,0.74c0.37,0.26,0.76,0.52,1.11,0.8
							c0.39,0.26,0.74,0.56,1.1,0.84l0.53,0.43c0.03,0.03,0.06,0.05,0.09,0.07c0.13-0.85,0.37-1.66,0.69-2.45
							c-0.23-0.27-0.47-0.54-0.71-0.8c-0.34-0.36-0.7-0.71-1.04-1.06c-0.37-0.33-0.73-0.68-1.11-1c-0.19-0.17-0.38-0.32-0.58-0.49
							c-0.2-0.16-0.39-0.32-0.59-0.47c-0.19-0.15-0.4-0.31-0.59-0.46l-0.61-0.43l-0.63-0.42l-0.62-0.42l-0.64-0.4l-0.65-0.37
							c-0.44-0.24-0.88-0.49-1.34-0.71c-0.45-0.24-0.9-0.46-1.37-0.66c-0.22-0.11-0.47-0.2-0.71-0.3c-0.12-0.05-0.24-0.1-0.37-0.14
							l-0.19-0.07l-0.22-0.08l-1.54-0.54l-0.83,1.48l-0.65,1.16l-0.32,0.58c-0.09,0.19-0.19,0.4-0.28,0.6l-0.56,1.2
							c-0.18,0.4-0.34,0.83-0.5,1.24c-0.33,0.81-0.56,1.68-0.81,2.53c-0.12,0.43-0.22,0.86-0.31,1.3l-0.14,0.65l-0.11,0.66
							l-0.1,0.66c-0.03,0.22-0.08,0.43-0.09,0.66l-0.13,1.32c-0.01,0.22-0.03,0.44-0.03,0.67l-0.02,0.67l-0.01,0.66
							c0,0.22,0.01,0.44,0.01,0.66c0.02,0.44,0.02,0.89,0.05,1.33l0.13,1.31c0.05,0.44,0.12,0.87,0.17,1.31
							c0.06,0.44,0.15,0.86,0.24,1.29c0.09,0.42,0.16,0.85,0.28,1.27c0.11,0.42,0.2,0.86,0.33,1.25l0.38,1.25
							c0.14,0.41,0.28,0.82,0.43,1.23c0.14,0.41,0.32,0.8,0.48,1.2c0.15,0.39,0.33,0.78,0.5,1.17c0.09,0.2,0.19,0.4,0.28,0.59
							l0.28,0.57l0.29,0.58l0.3,0.56l0.31,0.56l0.33,0.55l0.32,0.54l0.35,0.54c0.45,0.73,0.93,1.42,1.44,2.09
							c0.26,0.33,0.53,0.64,0.8,0.96C138.15,294.36,138.13,293.31,138.24,292.27z"/>
						<path class="st1" d="M124.19,331.14c-0.47-0.01-0.93-0.06-1.4-0.14c-0.46-0.07-0.91-0.17-1.36-0.27
							c-0.45-0.12-0.89-0.24-1.33-0.38c-0.44-0.14-0.88-0.31-1.3-0.47c-0.43-0.17-0.86-0.35-1.29-0.55
							c-0.21-0.09-0.41-0.19-0.62-0.29c-0.21-0.11-0.43-0.22-0.62-0.33c-0.41-0.22-0.81-0.46-1.21-0.72c-0.4-0.24-0.8-0.5-1.18-0.79
							c-0.38-0.26-0.75-0.55-1.11-0.85c-0.36-0.31-0.73-0.6-1.07-0.93c-0.35-0.31-0.68-0.66-1.01-1.01
							c-0.33-0.34-0.64-0.7-0.95-1.07c-0.3-0.37-0.59-0.75-0.87-1.15c-0.15-0.2-0.27-0.41-0.4-0.6c-0.13-0.21-0.26-0.41-0.38-0.62
							l-0.37-0.63c-0.11-0.21-0.22-0.42-0.34-0.64l-0.16-0.33l-0.15-0.33l-0.29-0.66l-0.56-1.28l0.83-0.85
							c0.18-0.18,0.33-0.33,0.5-0.49c0.17-0.16,0.33-0.32,0.51-0.47c0.33-0.3,0.67-0.6,1.03-0.89c0.18-0.15,0.36-0.29,0.55-0.43
							c0.18-0.14,0.35-0.29,0.53-0.42c0.37-0.27,0.76-0.52,1.13-0.77c0.19-0.13,0.4-0.25,0.59-0.37c0.2-0.11,0.39-0.24,0.59-0.35
							l0.61-0.32c0.21-0.1,0.42-0.2,0.62-0.31c0.21-0.1,0.43-0.18,0.64-0.26l0.32-0.13c0.11-0.03,0.22-0.07,0.33-0.1
							c0.22-0.06,0.44-0.14,0.68-0.19c0.23-0.05,0.47-0.1,0.68-0.12c-0.16,0.17-0.3,0.34-0.45,0.51c-0.09,0.07-0.15,0.16-0.22,0.25
							l-0.21,0.25c-0.15,0.17-0.28,0.34-0.42,0.51c-0.14,0.18-0.28,0.33-0.41,0.5c-0.13,0.18-0.26,0.35-0.4,0.5l-0.4,0.52
							c-0.26,0.34-0.52,0.69-0.79,1.02l-0.38,0.51c-0.12,0.18-0.25,0.35-0.38,0.51l-0.77,1.03l-0.76,1.02l-0.37,0.51
							c-0.11,0.17-0.25,0.34-0.35,0.49l0.26-2.12l0.32,0.51l0.15,0.26l0.17,0.25l0.33,0.5l0.36,0.5c0.1,0.17,0.22,0.32,0.34,0.48
							c0.13,0.16,0.24,0.32,0.37,0.48c0.24,0.32,0.48,0.64,0.75,0.94c0.24,0.32,0.52,0.62,0.78,0.93l0.4,0.46
							c0.13,0.15,0.27,0.3,0.42,0.44c0.14,0.16,0.26,0.31,0.42,0.45c0.13,0.15,0.27,0.29,0.42,0.44c0.29,0.3,0.58,0.59,0.88,0.88
							c0.29,0.3,0.6,0.58,0.9,0.88l0.92,0.85l0.94,0.86c0.32,0.28,0.63,0.57,0.97,0.85c0.32,0.29,0.65,0.57,0.98,0.86
							c0.33,0.3,0.67,0.58,1,0.87l1.02,0.88C123.49,330.52,123.83,330.83,124.19,331.14z"/>
						<path class="st1" d="M121.49,292.75c-0.39-0.34-0.74-0.71-1.07-1.08c-0.17-0.2-0.33-0.38-0.48-0.59
							c-0.16-0.2-0.32-0.39-0.46-0.6c-0.15-0.21-0.29-0.42-0.43-0.62l-0.41-0.64c-0.26-0.44-0.52-0.88-0.76-1.32l-0.34-0.69
							c-0.11-0.24-0.23-0.45-0.32-0.69c-0.21-0.46-0.4-0.93-0.58-1.41c-0.17-0.48-0.34-0.96-0.47-1.45
							c-0.08-0.24-0.15-0.49-0.23-0.74l-0.17-0.76c-0.11-0.49-0.22-1-0.31-1.51c-0.08-0.51-0.14-1.03-0.2-1.55
							c-0.02-0.27-0.03-0.52-0.04-0.77c-0.02-0.27-0.04-0.52-0.04-0.79c-0.01-0.25-0.02-0.52-0.02-0.78l0.03-0.78
							c0.01-0.26,0.03-0.52,0.05-0.78c0.02-0.26,0.02-0.52,0.06-0.78c0.07-0.52,0.13-1.04,0.23-1.56c0.06-0.25,0.09-0.51,0.15-0.76
							l0.19-0.76c0.06-0.25,0.14-0.5,0.21-0.75c0.08-0.25,0.15-0.5,0.23-0.74l0.42-1.35l1.2-0.11c0.31-0.03,0.55-0.04,0.82-0.05
							c0.27-0.02,0.54-0.04,0.81-0.05c0.53-0.01,1.07-0.02,1.6-0.01c0.27,0.01,0.54,0.01,0.8,0.03c0.27,0.01,0.54,0.02,0.8,0.04
							l0.8,0.06l0.8,0.1c0.26,0.03,0.53,0.06,0.79,0.11c0.27,0.04,0.53,0.09,0.8,0.14c0.26,0.05,0.53,0.11,0.79,0.17
							c0.26,0.06,0.53,0.12,0.79,0.2c0.26,0.07,0.52,0.15,0.78,0.24c0.26,0.08,0.51,0.16,0.77,0.29c0.25,0.1,0.5,0.2,0.75,0.32
							c0.24,0.12,0.48,0.26,0.71,0.39c-0.27,0.03-0.54,0.05-0.8,0.08c-0.12,0-0.25,0.01-0.39,0.02l-0.39,0.05
							c-0.26,0.03-0.51,0.05-0.77,0.1c-0.25,0.04-0.51,0.06-0.76,0.1c-0.26,0.05-0.51,0.08-0.76,0.11l-0.75,0.13
							c-0.25,0.04-0.5,0.09-0.75,0.13l-0.75,0.13l-1.49,0.28c-0.24,0.04-0.49,0.1-0.74,0.14c-0.24,0.05-0.49,0.1-0.74,0.14
							c-0.25,0.05-0.5,0.1-0.75,0.15c-0.24,0.05-0.49,0.1-0.74,0.14l-0.73,0.15l-0.71,0.15l1.62-1.45
							c-0.08,0.45-0.18,0.88-0.24,1.31c-0.07,0.45-0.14,0.89-0.18,1.32c-0.06,0.45-0.11,0.89-0.14,1.33
							c-0.03,0.21-0.04,0.44-0.05,0.67c-0.01,0.21-0.03,0.43-0.04,0.66l-0.04,0.67c-0.01,0.22-0.01,0.44-0.02,0.66
							c-0.01,0.45,0.01,0.9,0,1.35c0.02,0.45,0.03,0.9,0.06,1.35c0.02,0.45,0.05,0.89,0.09,1.35c0.04,0.46,0.08,0.91,0.13,1.36
							c0.01,0.23,0.05,0.45,0.08,0.69c0.02,0.23,0.05,0.46,0.08,0.69c0.06,0.45,0.13,0.91,0.2,1.38c0.04,0.23,0.07,0.46,0.1,0.68
							l0.12,0.7l0.13,0.69c0.04,0.25,0.1,0.47,0.13,0.71l0.28,1.42l0.15,0.7l0.16,0.72L121.49,292.75z"/>
						<path class="st1" d="M223.78,296.98c-0.17-0.11-0.29-0.17-0.42-0.26c-0.14-0.07-0.26-0.13-0.39-0.22
							c-0.26-0.13-0.52-0.28-0.77-0.41c-0.26-0.13-0.51-0.25-0.78-0.37c-0.26-0.12-0.52-0.24-0.78-0.35
							c-0.53-0.21-1.04-0.45-1.57-0.65c-0.54-0.2-1.07-0.38-1.6-0.55l-0.8-0.25c-0.27-0.09-0.55-0.15-0.82-0.23
							c-0.27-0.07-0.53-0.15-0.81-0.22c-0.26-0.07-0.54-0.13-0.81-0.19c-0.55-0.12-1.09-0.24-1.64-0.35l-1.65-0.27
							c-0.26-0.05-0.55-0.08-0.82-0.12c-0.28-0.03-0.55-0.05-0.83-0.08l-0.84-0.08c-0.27-0.04-0.55-0.04-0.83-0.06
							c-0.55-0.04-1.1-0.05-1.65-0.07c-0.56-0.01-1.11,0.01-1.65,0.02c-0.56,0.01-1.1,0.01-1.65,0.07c-0.55,0.05-1.1,0.08-1.65,0.15
							c-0.54,0.04-1.08,0.15-1.61,0.23c-0.55,0.09-1.08,0.19-1.62,0.28c0.55,0.08,1.08,0.13,1.62,0.19l0.81,0.09
							c0.14,0.02,0.27,0.03,0.4,0.04l0.41,0.06c0.53,0.09,1.06,0.16,1.59,0.23l0.39,0.07c0.14,0.01,0.26,0.03,0.4,0.05l0.78,0.15
							c0.52,0.1,1.05,0.19,1.57,0.3c0.52,0.11,1.03,0.24,1.55,0.35c0.25,0.06,0.51,0.1,0.76,0.18l0.76,0.21
							c0.26,0.07,0.51,0.13,0.76,0.2c0.25,0.07,0.51,0.13,0.76,0.21l1.5,0.48c0.5,0.15,0.98,0.34,1.47,0.51
							c0.49,0.17,0.98,0.38,1.46,0.56c0.24,0.09,0.48,0.18,0.73,0.29l0.7,0.3c0.24,0.11,0.48,0.21,0.71,0.32
							c0.22,0.11,0.46,0.23,0.69,0.33c0.47,0.21,0.92,0.46,1.37,0.7c0.23,0.11,0.45,0.24,0.67,0.36l0.35,0.18l0.18,0.12
							c-0.14,0.37-0.26,0.75-0.43,1.11c-0.36,0.82-0.76,1.61-1.23,2.37c-0.45,0.75-0.94,1.5-1.47,2.2
							c-0.12,0.19-0.28,0.35-0.41,0.52l-0.21,0.25l-0.21,0.25c-0.14,0.16-0.29,0.34-0.43,0.5l-0.45,0.5
							c-0.62,0.65-1.27,1.26-1.95,1.86c-0.68,0.59-1.4,1.15-2.13,1.68c-0.74,0.54-1.5,1.04-2.29,1.52c-0.78,0.49-1.6,0.92-2.41,1.36
							c-0.83,0.44-1.66,0.84-2.52,1.23c-0.85,0.39-1.71,0.75-2.6,1.09c-0.81,0.33-1.64,0.64-2.48,0.91
							c0.36,0.93,0.53,1.94,0.49,2.95c0.04,0,0.07,0,0.09-0.01c0.98-0.2,1.96-0.44,2.93-0.69c0.97-0.27,1.94-0.56,2.89-0.89
							c0.95-0.34,1.9-0.71,2.84-1.11c0.95-0.39,1.86-0.85,2.76-1.34c0.91-0.49,1.81-1.01,2.66-1.58c0.85-0.59,1.7-1.2,2.52-1.85
							c0.8-0.69,1.57-1.41,2.3-2.16c0.73-0.76,1.41-1.57,2.05-2.41c0.64-0.86,1.21-1.75,1.73-2.67c0.52-0.93,0.97-1.89,1.37-2.87
							c0.41-0.98,0.7-2,0.99-3.01l0.39-1.44L223.78,296.98z"/>
						<path class="st1" d="M189.83,297.18c0.38-0.75,0.75-1.5,1.09-2.24l0.51-1.13l0.5-1.13c0.15-0.38,0.31-0.74,0.45-1.13
							c0.15-0.39,0.3-0.76,0.45-1.14c0.15-0.38,0.28-0.76,0.42-1.14l0.2-0.58l0.19-0.57l0.19-0.58l0.18-0.57l0.17-0.57
							c0.06-0.2,0.12-0.39,0.16-0.58c0.24-0.77,0.42-1.54,0.6-2.31l0.25-1.17l0.21-1.15c0.11-0.78,0.26-1.56,0.34-2.33l0.05-0.58
							c0.03-0.2,0.03-0.39,0.04-0.58c0.04-0.39,0.08-0.78,0.09-1.16l0.04-1.16c0.01-0.2-0.01-0.39-0.01-0.58l-0.01-0.58
							c-0.01-0.2,0-0.38-0.01-0.58l-0.04-0.57l-0.04-0.57c-0.02-0.19-0.03-0.38-0.06-0.58l-0.13-1.13
							c-0.05-0.38-0.13-0.76-0.19-1.13l-0.09-0.57l-0.13-0.55c-0.09-0.37-0.16-0.76-0.26-1.12l-0.31-1.09
							c-0.05-0.18-0.1-0.37-0.17-0.55l-0.19-0.53c-0.14-0.35-0.25-0.72-0.4-1.07l-0.44-1.06c-0.08-0.17-0.14-0.36-0.23-0.53
							l-0.25-0.52l-0.5-1.03l2.36,0.94l-0.05,0.01l-0.06,0.02l-0.16,0.05l-0.29,0.1c-0.21,0.06-0.42,0.14-0.63,0.21
							c-0.42,0.15-0.83,0.31-1.24,0.48c-0.42,0.16-0.83,0.34-1.23,0.52c-0.42,0.19-0.83,0.38-1.23,0.58l-0.61,0.3l-0.61,0.32
							c-0.39,0.22-0.79,0.43-1.18,0.67c-0.2,0.11-0.39,0.23-0.58,0.34c-0.2,0.12-0.4,0.24-0.58,0.36c-0.38,0.24-0.77,0.49-1.15,0.74
							c-0.38,0.27-0.76,0.52-1.11,0.8c-0.38,0.26-0.74,0.56-1.1,0.83l-0.53,0.45c-0.18,0.14-0.37,0.29-0.53,0.44
							c-0.18,0.16-0.35,0.3-0.52,0.47l-0.51,0.46c-0.34,0.32-0.67,0.66-1,0.98c-0.33,0.34-0.67,0.66-0.97,1.03
							c-0.17,0.18-0.33,0.35-0.48,0.53l-0.45,0.53c-0.31,0.37-0.6,0.75-0.92,1.12c0.08-0.22,0.15-0.45,0.24-0.69
							c0.08-0.23,0.17-0.45,0.26-0.69l0.28-0.66c0.11-0.22,0.21-0.44,0.32-0.66c0.21-0.44,0.45-0.86,0.68-1.29
							c0.11-0.23,0.25-0.43,0.38-0.64c0.13-0.22,0.25-0.42,0.4-0.62c0.13-0.21,0.27-0.41,0.41-0.61c0.14-0.2,0.29-0.4,0.44-0.6
							c0.29-0.41,0.6-0.78,0.92-1.16c0.32-0.37,0.65-0.75,0.99-1.11c0.34-0.37,0.7-0.7,1.04-1.05c0.37-0.34,0.73-0.69,1.12-1
							c0.18-0.17,0.37-0.33,0.57-0.49c0.19-0.16,0.38-0.31,0.59-0.46c0.2-0.16,0.39-0.32,0.58-0.46l0.62-0.44l0.62-0.42l0.63-0.42
							l0.63-0.39l0.65-0.38c0.45-0.24,0.88-0.49,1.34-0.72c0.44-0.23,0.9-0.45,1.37-0.65c0.23-0.11,0.47-0.21,0.71-0.3
							c0.11-0.05,0.23-0.1,0.37-0.14l0.19-0.07l0.22-0.09l1.53-0.53l0.83,1.49l0.65,1.15l0.33,0.58c0.1,0.19,0.18,0.39,0.27,0.6
							l0.57,1.2c0.18,0.41,0.33,0.83,0.49,1.24c0.34,0.83,0.56,1.68,0.83,2.53c0.1,0.43,0.19,0.86,0.3,1.3l0.14,0.64l0.11,0.66
							l0.11,0.66c0.02,0.22,0.07,0.44,0.09,0.66l0.13,1.33c0.02,0.22,0.03,0.44,0.04,0.67l0.02,0.66l0.01,0.67
							c0,0.22-0.01,0.44-0.01,0.66c-0.02,0.44-0.02,0.88-0.06,1.32l-0.12,1.31c-0.05,0.44-0.12,0.88-0.18,1.31
							c-0.06,0.44-0.15,0.87-0.23,1.28c-0.09,0.44-0.17,0.87-0.29,1.29c-0.11,0.41-0.2,0.84-0.32,1.25l-0.38,1.25
							c-0.14,0.4-0.28,0.81-0.43,1.22c-0.15,0.4-0.32,0.8-0.48,1.2c-0.15,0.4-0.33,0.79-0.51,1.18c-0.09,0.2-0.17,0.4-0.27,0.59
							l-0.29,0.58l-0.29,0.57l-0.31,0.56l-0.32,0.56l-0.32,0.55l-0.32,0.54l-0.35,0.54c-0.45,0.72-0.95,1.42-1.44,2.09
							c-0.53,0.67-1.04,1.33-1.6,1.96C191.04,296,190.47,296.62,189.83,297.18z"/>
						<path class="st1" d="M206.55,331.14c0.34-0.31,0.68-0.61,1.04-0.91l1.01-0.88c0.34-0.29,0.68-0.57,1.01-0.87
							c0.33-0.29,0.66-0.57,0.98-0.86c0.32-0.28,0.64-0.57,0.97-0.85l0.94-0.86l0.92-0.85c0.3-0.31,0.61-0.58,0.9-0.88
							c0.3-0.29,0.58-0.59,0.88-0.88c0.14-0.15,0.28-0.29,0.43-0.44c0.14-0.15,0.28-0.29,0.42-0.45c0.15-0.14,0.28-0.29,0.42-0.44
							l0.39-0.46c0.27-0.3,0.54-0.61,0.79-0.93c0.27-0.3,0.51-0.62,0.75-0.94c0.14-0.16,0.25-0.31,0.36-0.48
							c0.13-0.17,0.25-0.31,0.36-0.48l0.35-0.5l0.32-0.5l0.17-0.25l0.16-0.26l0.31-0.51l0.26,2.12c-0.1-0.16-0.24-0.32-0.36-0.49
							l-0.37-0.51l-0.75-1.02l-0.76-1.03c-0.13-0.16-0.26-0.33-0.39-0.51l-0.38-0.51c-0.26-0.34-0.51-0.68-0.78-1.02l-0.39-0.52
							c-0.14-0.15-0.27-0.32-0.41-0.5c-0.14-0.17-0.28-0.32-0.42-0.5c-0.13-0.17-0.27-0.35-0.41-0.51l-0.22-0.25
							c-0.07-0.09-0.15-0.18-0.22-0.25c-0.15-0.17-0.3-0.34-0.46-0.51c0.23,0.02,0.46,0.07,0.68,0.12c0.23,0.05,0.45,0.13,0.68,0.19
							c0.1,0.04,0.22,0.07,0.33,0.1l0.33,0.13c0.21,0.08,0.44,0.16,0.64,0.26c0.2,0.1,0.41,0.2,0.63,0.31l0.61,0.32
							c0.21,0.11,0.39,0.24,0.6,0.35c0.2,0.12,0.39,0.24,0.59,0.37c0.38,0.25,0.75,0.5,1.12,0.77c0.19,0.13,0.36,0.27,0.54,0.42
							c0.18,0.14,0.36,0.28,0.53,0.43c0.35,0.28,0.7,0.58,1.04,0.89c0.17,0.15,0.34,0.31,0.5,0.47c0.17,0.16,0.33,0.31,0.51,0.49
							l0.82,0.85l-0.56,1.28l-0.28,0.66l-0.15,0.33l-0.16,0.33c-0.1,0.21-0.22,0.43-0.33,0.64l-0.37,0.63
							c-0.12,0.21-0.25,0.41-0.38,0.62c-0.12,0.19-0.26,0.4-0.4,0.6c-0.29,0.4-0.58,0.78-0.88,1.15c-0.3,0.37-0.62,0.73-0.95,1.07
							c-0.33,0.35-0.66,0.7-1.01,1.01c-0.36,0.33-0.71,0.63-1.08,0.93c-0.37,0.3-0.74,0.6-1.12,0.85c-0.38,0.29-0.78,0.54-1.17,0.79
							c-0.41,0.26-0.79,0.49-1.21,0.72c-0.2,0.11-0.41,0.22-0.61,0.33c-0.21,0.1-0.42,0.2-0.63,0.29c-0.41,0.2-0.84,0.38-1.27,0.55
							c-0.43,0.17-0.87,0.33-1.31,0.47c-0.44,0.14-0.87,0.27-1.33,0.38c-0.45,0.11-0.9,0.2-1.37,0.27
							C207.48,331.08,207.01,331.13,206.55,331.14z"/>
						<path class="st1" d="M209.24,292.75l0.34-1.46l0.16-0.72l0.15-0.7l0.28-1.42c0.05-0.24,0.1-0.46,0.15-0.71l0.11-0.69l0.13-0.7
							c0.03-0.22,0.07-0.45,0.11-0.68c0.06-0.47,0.14-0.93,0.2-1.38c0.04-0.23,0.05-0.46,0.08-0.69c0.04-0.23,0.06-0.46,0.07-0.69
							c0.06-0.45,0.09-0.9,0.14-1.36c0.03-0.45,0.07-0.9,0.09-1.35c0.03-0.45,0.03-0.91,0.06-1.35c-0.01-0.45,0.01-0.9-0.01-1.35
							c0-0.22,0-0.44-0.01-0.66l-0.03-0.67c0-0.23-0.03-0.45-0.04-0.66c-0.01-0.23-0.02-0.46-0.05-0.67
							c-0.05-0.44-0.09-0.88-0.14-1.33c-0.04-0.43-0.12-0.88-0.18-1.32c-0.07-0.43-0.17-0.86-0.24-1.31l1.62,1.45l-0.71-0.15
							l-0.72-0.15c-0.25-0.05-0.5-0.09-0.74-0.14c-0.25-0.05-0.5-0.1-0.73-0.15c-0.25-0.04-0.5-0.09-0.75-0.14
							c-0.25-0.04-0.5-0.1-0.75-0.14l-1.49-0.28l-0.74-0.13c-0.25-0.04-0.5-0.09-0.76-0.13l-0.75-0.13
							c-0.25-0.03-0.51-0.07-0.76-0.11c-0.25-0.04-0.49-0.06-0.76-0.1c-0.25-0.04-0.51-0.07-0.77-0.1l-0.39-0.05
							c-0.13-0.02-0.26-0.02-0.4-0.02c-0.26-0.03-0.52-0.05-0.8-0.08c0.24-0.13,0.47-0.27,0.71-0.39c0.25-0.13,0.49-0.22,0.75-0.32
							c0.24-0.12,0.51-0.2,0.76-0.29c0.26-0.09,0.52-0.17,0.78-0.24c0.27-0.07,0.53-0.14,0.79-0.2c0.27-0.06,0.53-0.11,0.8-0.17
							c0.27-0.05,0.54-0.1,0.8-0.14c0.27-0.04,0.54-0.08,0.8-0.11l0.8-0.1l0.8-0.06c0.28-0.02,0.53-0.03,0.8-0.04
							c0.26-0.01,0.53-0.02,0.8-0.03c0.54,0,1.07,0,1.6,0.01c0.27,0.01,0.54,0.03,0.8,0.05c0.27,0,0.53,0.02,0.82,0.05l1.2,0.11
							l0.44,1.35c0.08,0.24,0.15,0.5,0.24,0.74c0.06,0.26,0.15,0.5,0.2,0.75l0.18,0.76c0.07,0.26,0.11,0.51,0.15,0.76
							c0.11,0.52,0.17,1.05,0.24,1.56c0.02,0.26,0.04,0.52,0.07,0.78c0.02,0.26,0.04,0.52,0.05,0.78l0.02,0.78
							c0,0.26-0.01,0.52-0.02,0.78c0,0.26-0.01,0.52-0.03,0.79c-0.02,0.25-0.04,0.51-0.06,0.77c-0.06,0.51-0.12,1.03-0.2,1.55
							c-0.09,0.51-0.18,1.02-0.29,1.51l-0.19,0.76c-0.07,0.25-0.14,0.5-0.21,0.74c-0.15,0.49-0.31,0.97-0.48,1.45
							c-0.18,0.49-0.38,0.95-0.58,1.41c-0.1,0.24-0.21,0.45-0.32,0.69l-0.35,0.69c-0.24,0.44-0.49,0.89-0.76,1.32l-0.41,0.64
							c-0.14,0.2-0.29,0.41-0.43,0.62c-0.15,0.21-0.31,0.4-0.47,0.6c-0.15,0.21-0.31,0.39-0.47,0.59
							C209.97,292.05,209.63,292.41,209.24,292.75z"/>
						<g>
							<path class="st1" d="M149.26,339.61c-0.31,0.05-0.6,0.11-0.9,0.16c-3.02,0.46-6.1,0.51-9.16,0.2
								c-1.53-0.16-3.05-0.43-4.56-0.78c-1.5-0.34-2.99-0.79-4.45-1.31c-1.45-0.53-2.89-1.14-4.28-1.83
								c-0.7-0.35-1.39-0.72-2.06-1.12c-0.33-0.18-0.66-0.39-0.99-0.6c-0.02-0.01-0.04-0.02-0.06-0.04
								c0.02-0.01,0.02-0.03,0.04-0.05c0.29-0.29,0.56-0.59,0.85-0.87c0.3-0.29,0.59-0.58,0.9-0.86c0.29-0.27,0.6-0.55,0.9-0.83
								c0.32-0.28,0.62-0.54,0.95-0.81c0.31-0.26,0.65-0.52,0.96-0.77c0.33-0.25,0.67-0.51,0.99-0.75c0.34-0.24,0.68-0.49,1.02-0.72
								c0.35-0.24,0.69-0.47,1.04-0.72c0.34-0.22,0.71-0.44,1.06-0.67c0.36-0.21,0.71-0.42,1.08-0.63c0.36-0.21,0.71-0.41,1.09-0.61
								c0.73-0.41,1.47-0.8,2.24-1.16c0.75-0.35,1.52-0.69,2.31-0.99c-0.81,0.19-1.63,0.44-2.42,0.72c-0.8,0.27-1.59,0.57-2.38,0.89
								c-0.79,0.32-1.56,0.67-2.33,1.04c-0.38,0.2-0.77,0.38-1.14,0.57c-0.38,0.19-0.75,0.4-1.12,0.61
								c-0.37,0.21-0.75,0.41-1.11,0.63c-0.37,0.22-0.73,0.44-1.1,0.67c-0.35,0.24-0.71,0.48-1.06,0.71
								c-0.36,0.24-0.71,0.5-1.06,0.76c-0.35,0.25-0.69,0.5-1.02,0.77c-0.35,0.27-0.68,0.53-1,0.82c-0.34,0.28-0.66,0.57-0.99,0.85
								c-0.32,0.28-0.62,0.6-0.94,0.89l-0.77,0.71l0.86,0.74c0.19,0.16,0.34,0.28,0.51,0.42c0.17,0.13,0.34,0.26,0.51,0.38
								c0.33,0.24,0.67,0.49,1.01,0.73c0.69,0.47,1.39,0.91,2.1,1.34c1.42,0.83,2.9,1.6,4.41,2.24c1.53,0.65,3.1,1.23,4.69,1.69
								c0.8,0.24,1.61,0.43,2.42,0.62c0.81,0.18,1.64,0.34,2.47,0.46c3.31,0.53,6.69,0.6,10.04,0.23c1.81-0.19,3.59-0.54,5.36-0.98
								C152.15,341.92,150.5,340.93,149.26,339.61z"/>
						</g>
					</g>
				</g>
			</g>
			<g>
				<path class="st1" d="M214.34,335.25c-0.32-0.29-0.62-0.6-0.93-0.88c-0.33-0.29-0.65-0.59-0.98-0.85
					c-0.32-0.29-0.67-0.55-0.99-0.82c-0.34-0.27-0.68-0.54-1.02-0.79c-0.36-0.24-0.7-0.51-1.05-0.74c-0.35-0.24-0.71-0.48-1.07-0.71
					c-0.36-0.23-0.73-0.45-1.09-0.67c-0.36-0.22-0.73-0.43-1.11-0.64c-0.37-0.2-0.75-0.41-1.12-0.61c-0.37-0.2-0.75-0.38-1.14-0.57
					c-0.76-0.37-1.53-0.72-2.32-1.03c-0.79-0.32-1.57-0.62-2.37-0.9c-0.79-0.28-1.6-0.52-2.42-0.72c0.79,0.31,1.54,0.65,2.31,1
					c0.75,0.36,1.5,0.74,2.23,1.15c0.37,0.2,0.73,0.41,1.1,0.62c0.36,0.21,0.73,0.42,1.07,0.64c0.36,0.22,0.71,0.44,1.05,0.67
					c0.36,0.23,0.7,0.45,1.04,0.68c0.34,0.25,0.68,0.49,1.01,0.73c0.34,0.25,0.67,0.5,0.99,0.75c0.33,0.25,0.65,0.51,0.97,0.77
					c0.32,0.27,0.63,0.53,0.94,0.81c0.31,0.27,0.61,0.54,0.9,0.82c0.3,0.29,0.6,0.58,0.89,0.86c0.3,0.28,0.57,0.59,0.86,0.88
					c0.01,0.01,0.02,0.02,0.03,0.04c-0.01,0.01-0.03,0.02-0.05,0.04c-0.32,0.21-0.66,0.41-1,0.59c-0.66,0.4-1.36,0.77-2.05,1.12
					c-1.39,0.7-2.82,1.3-4.29,1.83c-1.45,0.52-2.93,0.97-4.44,1.32c-1.5,0.34-3.02,0.61-4.54,0.77c-3.05,0.31-6.13,0.27-9.15-0.2
					c-3.01-0.44-5.97-1.28-8.79-2.45c-2.82-1.14-5.53-2.62-8.09-4.33l-0.39-0.31c-0.9,1.1-1.99,2.07-3.24,2.74l0.27,0.21l0.47,0.37
					l0.24,0.18l0.13,0.09l0.04,0.03c-0.12-0.09,0.18,0.13,0.15,0.11l0.07,0.05c2.81,1.79,5.79,3.32,8.93,4.52
					c3.13,1.18,6.42,2.01,9.77,2.37c3.34,0.36,6.72,0.31,10.02-0.22c0.83-0.13,1.65-0.29,2.45-0.48c0.82-0.18,1.63-0.38,2.41-0.61
					c1.61-0.47,3.16-1.04,4.68-1.69c1.51-0.65,3-1.41,4.42-2.25c0.72-0.42,1.41-0.85,2.09-1.33c0.34-0.23,0.68-0.47,1-0.73
					c0.17-0.12,0.35-0.25,0.51-0.37c0.16-0.15,0.32-0.27,0.51-0.42l0.85-0.74L214.34,335.25z"/>
			</g>
		</g>
	</g>
	<g>
		<rect x="251.42" y="292.7" width="5.28" height="5.06"/>
		<rect x="260.49" y="292.7" width="5.26" height="5.06"/>
		<rect x="338.97" y="285.02" width="5.28" height="5.13"/>
		<path d="M441.93,270.07c0,1.65-0.15,2.74-0.39,3.3c-0.53,1-1.63,1.5-3.4,1.5h-3.32h-1.24h-8.25h-1.1h-8.26h-1.23h-4.18
			c-0.15-10.37-4.32-15.63-12.43-15.63c-5.08,0-9.68,2.46-14.15,7.91l0.69-16.54h-5.28v24.26h-8.39h-0.91h-8.59h-1.1h-8.06h-1.43
			h-7.77c0.77-0.87,1.15-2.61,1.15-5.3v-10.24h-5.33v10.52c0,1.6-0.18,2.78-0.57,3.47c-0.58,1.05-1.64,1.55-3.22,1.55h-3.83h-1.15
			h-8.34h-1.1h-8.39h-1.1h-8.4h-1.1h-8.39h-1.1h-8.16h-1.33h-0.68c-2.74,0-4.6-1.32-6.57-4.75c-2.11-3.61-5.28-5.44-9.49-5.44h-2.11
			v4.66c0.29-0.04,0.57-0.04,0.86-0.04c3.07,0,4.84,2.01,4.84,4.84c0,4.67-4.69,8.6-10.93,8.6c-6.95,0-11.26-4.43-11.26-11.52v-4.52
			h-5.37v5.12c0,9,7.29,15.86,16.49,15.86c7.81,0,14.24-4.48,15.78-11.61c2.02,2.9,3.64,3.85,8.44,4v0.03h9.49h1.1h8.39h1.1h8.4h1.1
			h8.39h1.1h8.34h1.15h19.57h1.43h8.06h1.1h8.59h0.91h43.74h1.23h8.26h1.1h8.25h1.24h4.41c5.37,0,8.06-2.74,8.06-8.27v-21.21h-5.37
			V270.07z M405.01,274.87h-21.43c3.11-6.4,8.72-11.05,14.09-11.05c4.6,0,7.39,3.74,7.39,9.6
			C405.06,273.92,405.06,274.37,405.01,274.87z"/>
		<rect x="452.72" y="250.55" width="5.32" height="29.54"/>
		<path d="M511.27,270.07c0,1.65-0.14,2.74-0.38,3.3c-0.53,1-1.63,1.5-3.41,1.5h-3.69h-0.81h-8.1h-1.69h-1.49
			c-2.01,0-3.4-0.27-4.12-0.78c-1.01-0.68-1.53-2.14-1.53-4.38v-19.11h-5.32v21.16c0,2.51,0.62,4.48,1.92,5.95
			c1.38,1.59,3.35,2.37,5.93,2.37h4.61h1.69h8.1h0.81h4.85c5.31,0,8.01-2.74,8.01-8.27v-12.48h-5.37V270.07z"/>
		<rect x="511.22" y="284.98" width="5.27" height="5.11"/>
		<rect x="502.16" y="284.98" width="5.27" height="5.11"/>
		<path d="M531.93,259.29c-6.03,0-10.31,4.2-10.31,10.37c0,6.08,4.12,10.43,10.31,10.43c2.45,0,4.17-0.78,5.08-2.34
			c-0.1,3.57-1.77,5.72-5.13,5.81v4.07c6.95,0,10.4-2.75,10.4-8.18v-9.65C542.29,263.77,538.26,259.29,531.93,259.29z
			 M531.93,275.47c-2.92,0-4.94-2.6-4.94-5.82c0-3.1,1.87-5.71,4.71-5.71c3.07,0,5.07,2.38,5.07,5.94
			C536.76,272.9,534.81,275.47,531.93,275.47z"/>
		<path d="M552.98,276.8c0,4.39-2.2,6.49-6.66,6.49v4.38c8.24,0,12.03-3.42,12.03-11.66v-16.68h-5.37V276.8z"/>
		<rect x="586.36" y="250.06" width="5.27" height="5.07"/>
		<path d="M651.8,261.84c-2.58-1.68-5.65-2.51-9.21-2.51h-2.35l6.47-8.73h-6.37l-9.44,13.53h11.07c3.5,0,6.28,1.14,8.29,3.47
			c1.72,2.02,2.6,4.44,2.6,7.27h-25.12h-1.2h-8.3h-1.1h-8.4h-1.1h-7.72h-1.77h-6.48v-15.54h-5.37v17.46c0,4.39-2.21,6.49-6.66,6.49
			v4.38c6.51,0,10.88-2.69,11.7-7.58h6.81h1.77h7.72h1.1h8.4h1.1h8.3h1.2h30.88v-3.2C658.62,269.72,656.37,264.73,651.8,261.84z"/>
		<path d="M726.85,262.9c-6.38,0-10.84,4.38-10.84,10.52c0,0.4,0.04,0.82,0.1,1.23l0.05,0.22h-5.42h-1.2h-8.29h-1.11h-8.4h-1.1
			h-7.72h-1.77h-6.47v-15.54h-5.37v17.46c0,4.39-2.21,6.49-6.67,6.49v4.38c6.52,0,10.88-2.69,11.69-7.58h6.82h1.77h7.72h1.1h8.4
			h1.11h8.29h1.2h7.42c2.07,2.7,4.99,4.07,8.69,4.07c6.37,0,10.74-4.49,10.74-10.55C737.59,267.6,733.22,262.9,726.85,262.9z
			 M727,279.4c-3.21,0-5.47-2.6-5.47-6.03c0-3.44,2.16-5.85,5.18-5.85c3.16,0,5.37,2.6,5.37,6.08
			C732.08,277.07,729.97,279.4,727,279.4z"/>
	</g>
</g>
</svg>
